G04 Layer_Color=8388736*
%FSLAX43Y43*%
%MOMM*%
G71*
G01*
G75*
%ADD41C,0.127*%
%ADD78R,0.862X1.040*%
%ADD79R,1.040X0.862*%
%ADD80R,1.200X1.300*%
%ADD81R,1.624X1.370*%
%ADD82R,2.260X1.620*%
%ADD83R,1.116X0.913*%
%ADD84R,1.300X1.200*%
%ADD85R,0.700X0.550*%
%ADD86R,1.200X1.600*%
%ADD87R,0.950X0.550*%
%ADD88R,0.550X0.950*%
%ADD89R,0.500X2.300*%
%ADD90R,2.100X1.400*%
%ADD91R,0.900X0.400*%
%ADD92R,0.400X0.900*%
%ADD93R,1.600X1.600*%
%ADD94R,0.300X1.100*%
%ADD95R,1.100X0.300*%
%ADD96R,0.506X0.862*%
%ADD97R,3.500X1.300*%
%ADD98R,0.608X2.400*%
%ADD99R,2.100X3.600*%
%ADD100R,6.300X1.300*%
%ADD101C,1.878*%
%ADD102R,1.878X1.878*%
%ADD103R,1.878X1.878*%
%ADD104C,1.675*%
%ADD105R,1.600X1.600*%
%ADD106C,1.600*%
%ADD107C,1.268*%
%ADD108C,1.100*%
%ADD109O,1.050X2.625*%
G04:AMPARAMS|DCode=110|XSize=2mm|YSize=1.475mm|CornerRadius=0.394mm|HoleSize=0mm|Usage=FLASHONLY|Rotation=270.000|XOffset=0mm|YOffset=0mm|HoleType=Round|Shape=RoundedRectangle|*
%AMROUNDEDRECTD110*
21,1,2.000,0.688,0,0,270.0*
21,1,1.212,1.475,0,0,270.0*
1,1,0.787,-0.344,-0.606*
1,1,0.787,-0.344,0.606*
1,1,0.787,0.344,0.606*
1,1,0.787,0.344,-0.606*
%
%ADD110ROUNDEDRECTD110*%
%ADD111O,1.150X1.350*%
G36*
X31360Y82670D02*
X30750Y83279D01*
X30140Y82670D01*
Y83635D01*
X31360D01*
Y82670D01*
D02*
G37*
G36*
Y82619D02*
Y82365D01*
X30140D01*
Y82619D01*
X30750Y83229D01*
X31360Y82619D01*
D02*
G37*
G36*
X36360Y85420D02*
X35750Y86029D01*
X35140Y85420D01*
Y86385D01*
X36360D01*
Y85420D01*
D02*
G37*
G36*
Y85369D02*
Y85115D01*
X35140D01*
Y85369D01*
X35750Y85979D01*
X36360Y85369D01*
D02*
G37*
D41*
X0Y0D02*
X66000D01*
Y119300D01*
X0D02*
X66000D01*
X0Y0D02*
Y119300D01*
D78*
X37847Y75900D02*
D03*
Y77100D02*
D03*
X39250Y75900D02*
D03*
Y77100D02*
D03*
X40600Y75900D02*
D03*
Y77100D02*
D03*
X41965Y77100D02*
D03*
Y75900D02*
D03*
X35250Y99150D02*
D03*
Y100350D02*
D03*
X27920Y109575D02*
D03*
Y108375D02*
D03*
X29250Y85150D02*
D03*
Y86350D02*
D03*
X34270Y109575D02*
D03*
Y108375D02*
D03*
X32000Y95100D02*
D03*
Y93900D02*
D03*
X24110Y109575D02*
D03*
Y108375D02*
D03*
X26000Y95100D02*
D03*
Y93900D02*
D03*
X30460Y109575D02*
D03*
Y108375D02*
D03*
X22840Y100120D02*
D03*
Y101320D02*
D03*
Y109575D02*
D03*
Y108375D02*
D03*
X27750Y83600D02*
D03*
Y82400D02*
D03*
X19406Y73625D02*
D03*
Y72425D02*
D03*
X12045Y115360D02*
D03*
Y116560D02*
D03*
X10140Y115360D02*
D03*
Y116560D02*
D03*
X23250Y96400D02*
D03*
Y97600D02*
D03*
X38750Y86350D02*
D03*
Y85150D02*
D03*
X31730Y109575D02*
D03*
Y108375D02*
D03*
X26015D02*
D03*
Y109575D02*
D03*
X35540Y105130D02*
D03*
Y103930D02*
D03*
X22000Y96400D02*
D03*
Y97600D02*
D03*
X17760Y114090D02*
D03*
Y115290D02*
D03*
X24750Y95100D02*
D03*
Y93900D02*
D03*
X33000Y109575D02*
D03*
Y108375D02*
D03*
X30750Y85150D02*
D03*
Y86350D02*
D03*
X43160Y107105D02*
D03*
Y108305D02*
D03*
X37250Y86350D02*
D03*
Y85150D02*
D03*
X22205Y115925D02*
D03*
Y114725D02*
D03*
X27750Y85150D02*
D03*
Y86350D02*
D03*
X43310Y75893D02*
D03*
Y77093D02*
D03*
X36500Y75900D02*
D03*
Y77100D02*
D03*
D79*
X51700Y74700D02*
D03*
X52900D02*
D03*
X8905Y105800D02*
D03*
X10105D02*
D03*
X42560Y117865D02*
D03*
X43760D02*
D03*
X9540Y110245D02*
D03*
X10740D02*
D03*
X8905Y95640D02*
D03*
X10105D02*
D03*
X8905Y100720D02*
D03*
X10105D02*
D03*
X13350Y108340D02*
D03*
X14550D02*
D03*
X8905Y98180D02*
D03*
X10105D02*
D03*
D80*
X42310Y109610D02*
D03*
X44010D02*
D03*
X51600Y76300D02*
D03*
X53300D02*
D03*
X53350Y78200D02*
D03*
X51650D02*
D03*
X42310Y115960D02*
D03*
X44010D02*
D03*
D81*
X21400Y75197D02*
D03*
Y72403D02*
D03*
D82*
X41150Y86460D02*
D03*
Y81960D02*
D03*
X50250D02*
D03*
Y86460D02*
D03*
X15750Y81960D02*
D03*
Y86460D02*
D03*
X24850D02*
D03*
Y81960D02*
D03*
D83*
X30750Y83826D02*
D03*
Y82111D02*
D03*
X35750Y86576D02*
D03*
Y84861D02*
D03*
D84*
X16000Y79850D02*
D03*
Y78150D02*
D03*
X20300Y114475D02*
D03*
Y116175D02*
D03*
X12750Y74900D02*
D03*
Y76600D02*
D03*
Y79850D02*
D03*
Y78150D02*
D03*
X39985Y111935D02*
D03*
Y113635D02*
D03*
X16000Y74900D02*
D03*
Y76600D02*
D03*
D85*
X42017Y105800D02*
D03*
X44303D02*
D03*
X11283Y108340D02*
D03*
X8997D02*
D03*
X37953Y108975D02*
D03*
X35667D02*
D03*
D86*
X15335Y113825D02*
D03*
Y116825D02*
D03*
X13835D02*
D03*
Y113825D02*
D03*
D87*
X49615Y71875D02*
D03*
Y71225D02*
D03*
Y70575D02*
D03*
Y69925D02*
D03*
X53215D02*
D03*
Y70575D02*
D03*
Y71225D02*
D03*
Y71875D02*
D03*
D88*
X50440Y69100D02*
D03*
X51090D02*
D03*
X51740D02*
D03*
X52390D02*
D03*
Y72700D02*
D03*
X51740D02*
D03*
X51090D02*
D03*
X50440D02*
D03*
D89*
X33939Y49256D02*
D03*
X34639D02*
D03*
X35339D02*
D03*
X36039D02*
D03*
X36739D02*
D03*
X37439D02*
D03*
X38139D02*
D03*
X38839D02*
D03*
X39539D02*
D03*
X40239D02*
D03*
X40939D02*
D03*
X41639D02*
D03*
X42339D02*
D03*
X43039D02*
D03*
X43739D02*
D03*
X44439D02*
D03*
X45139D02*
D03*
X45839D02*
D03*
X46539D02*
D03*
X47239D02*
D03*
X47939D02*
D03*
X48639D02*
D03*
X49339D02*
D03*
X33239D02*
D03*
X32539D02*
D03*
X31839D02*
D03*
X31139D02*
D03*
X30439D02*
D03*
X29739D02*
D03*
X29039D02*
D03*
X28339D02*
D03*
X27639D02*
D03*
X26939D02*
D03*
X26239D02*
D03*
X25539D02*
D03*
X24839D02*
D03*
X24139D02*
D03*
X23439D02*
D03*
X22739D02*
D03*
X22034Y49261D02*
D03*
X21339Y49256D02*
D03*
X20639D02*
D03*
X19939D02*
D03*
X19239D02*
D03*
X18539D02*
D03*
X17839D02*
D03*
X17139D02*
D03*
X16439D02*
D03*
D90*
X27615Y70030D02*
D03*
Y75530D02*
D03*
X24415D02*
D03*
Y70030D02*
D03*
D91*
X45100Y71350D02*
D03*
Y71850D02*
D03*
Y72350D02*
D03*
Y72850D02*
D03*
X42100D02*
D03*
Y72350D02*
D03*
Y71850D02*
D03*
Y71350D02*
D03*
D92*
X44350Y73600D02*
D03*
X43850D02*
D03*
X43350D02*
D03*
X42850D02*
D03*
Y70600D02*
D03*
X43350D02*
D03*
X43850D02*
D03*
X44350D02*
D03*
D93*
X43600Y72100D02*
D03*
D94*
X26440Y106240D02*
D03*
X26940D02*
D03*
X27440D02*
D03*
X27940D02*
D03*
X28440D02*
D03*
X28940D02*
D03*
X29440D02*
D03*
X29940D02*
D03*
X30440D02*
D03*
X30940D02*
D03*
X31440D02*
D03*
X31940D02*
D03*
Y97740D02*
D03*
X31440D02*
D03*
X30940D02*
D03*
X30440D02*
D03*
X29940D02*
D03*
X29440D02*
D03*
X28940D02*
D03*
X28440D02*
D03*
X27940D02*
D03*
X27440D02*
D03*
X26940D02*
D03*
X26440D02*
D03*
D95*
X33440Y104740D02*
D03*
Y104240D02*
D03*
Y103740D02*
D03*
Y103240D02*
D03*
Y102740D02*
D03*
Y102240D02*
D03*
Y101740D02*
D03*
Y101240D02*
D03*
Y100740D02*
D03*
Y100240D02*
D03*
Y99740D02*
D03*
Y99240D02*
D03*
X24940D02*
D03*
Y99740D02*
D03*
Y100240D02*
D03*
Y100740D02*
D03*
Y101240D02*
D03*
Y101740D02*
D03*
Y102240D02*
D03*
Y102740D02*
D03*
Y103240D02*
D03*
Y103740D02*
D03*
Y104240D02*
D03*
Y104740D02*
D03*
D96*
X44110Y111435D02*
D03*
X42210D02*
D03*
Y114135D02*
D03*
X43160D02*
D03*
X44110D02*
D03*
D97*
X50860Y98815D02*
D03*
X60860D02*
D03*
X50860Y101355D02*
D03*
X60860D02*
D03*
X50860Y103895D02*
D03*
X60860Y103895D02*
D03*
X50860Y106435D02*
D03*
X60860D02*
D03*
D98*
X34597Y112575D02*
D03*
X33797D02*
D03*
X32997D02*
D03*
X32197D02*
D03*
X31397D02*
D03*
D99*
X28147Y112525D02*
D03*
Y117525D02*
D03*
X37847Y112525D02*
D03*
Y117525D02*
D03*
D100*
X33000Y118675D02*
D03*
D101*
X16490Y93100D02*
D03*
X6330Y91830D02*
D03*
X8870Y6740D02*
D03*
X6330D02*
D03*
X8870Y9280D02*
D03*
X6330D02*
D03*
X8870Y11820D02*
D03*
X6330D02*
D03*
X8870Y14360D02*
D03*
X6330D02*
D03*
X8870Y16900D02*
D03*
X6330D02*
D03*
X8870Y19440D02*
D03*
X6330D02*
D03*
X8870Y21980D02*
D03*
X6330D02*
D03*
X8870Y24520D02*
D03*
X6330D02*
D03*
X8870Y27060D02*
D03*
X6330D02*
D03*
X8870Y29600D02*
D03*
X6330D02*
D03*
X8870Y32140D02*
D03*
X6330D02*
D03*
X8870Y34680D02*
D03*
X6330D02*
D03*
X8870Y37220D02*
D03*
X6330D02*
D03*
X8870Y39760D02*
D03*
X6330D02*
D03*
X8870Y42300D02*
D03*
X6330D02*
D03*
X8870Y44840D02*
D03*
X6330D02*
D03*
X8870Y47380D02*
D03*
X6330D02*
D03*
X8870Y49920D02*
D03*
X6330D02*
D03*
X8870Y52460D02*
D03*
X6330D02*
D03*
X8870Y55000D02*
D03*
X6330D02*
D03*
X8870Y57540D02*
D03*
X6330D02*
D03*
X8870Y60080D02*
D03*
X6330D02*
D03*
X8870Y62620D02*
D03*
X6330D02*
D03*
X8870Y65160D02*
D03*
X6330D02*
D03*
X8870Y67700D02*
D03*
X6330D02*
D03*
X8870Y70240D02*
D03*
X6330D02*
D03*
X8870Y72780D02*
D03*
X6330D02*
D03*
X8870Y75320D02*
D03*
X6330D02*
D03*
X8870Y77860D02*
D03*
X6330D02*
D03*
X8870Y80400D02*
D03*
X6330D02*
D03*
X8870Y82940D02*
D03*
X6330D02*
D03*
X8870Y85480D02*
D03*
X6330Y113420D02*
D03*
X59670Y6740D02*
D03*
X57130D02*
D03*
X59670Y9280D02*
D03*
X57130D02*
D03*
X59670Y11820D02*
D03*
X57130D02*
D03*
X59670Y14360D02*
D03*
X57130D02*
D03*
X59670Y16900D02*
D03*
X57130D02*
D03*
X59670Y19440D02*
D03*
X57130D02*
D03*
X59670Y21980D02*
D03*
X57130D02*
D03*
X59670Y24520D02*
D03*
X57130D02*
D03*
X59670Y27060D02*
D03*
X57130D02*
D03*
X59670Y29600D02*
D03*
X57130D02*
D03*
X59670Y32140D02*
D03*
X57130D02*
D03*
X59670Y34680D02*
D03*
X57130D02*
D03*
X59670Y37220D02*
D03*
X57130D02*
D03*
X59670Y39760D02*
D03*
X57130D02*
D03*
X59670Y42300D02*
D03*
X57130D02*
D03*
X59670Y44840D02*
D03*
X57130D02*
D03*
X59670Y47380D02*
D03*
X57130D02*
D03*
X59670Y49920D02*
D03*
X57130D02*
D03*
X59670Y52460D02*
D03*
X57130D02*
D03*
X59670Y55000D02*
D03*
X57130D02*
D03*
X59670Y57540D02*
D03*
X57130D02*
D03*
X59670Y60080D02*
D03*
X57130D02*
D03*
X59670Y62620D02*
D03*
X57130D02*
D03*
X59670Y65160D02*
D03*
X57130D02*
D03*
X59670Y67700D02*
D03*
X57130D02*
D03*
X59670Y70240D02*
D03*
X57130D02*
D03*
X59670Y72780D02*
D03*
X57130D02*
D03*
X59670Y75320D02*
D03*
X57130D02*
D03*
X59670Y77860D02*
D03*
X57130D02*
D03*
X59670Y80400D02*
D03*
X57130D02*
D03*
X59670Y82940D02*
D03*
X57130D02*
D03*
X59670Y85480D02*
D03*
X41890Y93100D02*
D03*
Y95640D02*
D03*
Y98180D02*
D03*
X59670Y113420D02*
D03*
D102*
X19030Y93100D02*
D03*
D103*
X6330Y89290D02*
D03*
Y85480D02*
D03*
Y115960D02*
D03*
X57130Y85480D02*
D03*
X41890Y100720D02*
D03*
X59670Y115960D02*
D03*
D104*
X19035Y105791D02*
D03*
Y100711D02*
D03*
X32429Y71505D02*
D03*
X37509D02*
D03*
D105*
X6330Y108340D02*
D03*
D106*
Y105800D02*
D03*
Y103260D02*
D03*
Y100720D02*
D03*
Y98180D02*
D03*
Y95640D02*
D03*
D107*
X55860Y100085D02*
D03*
Y105165D02*
D03*
D108*
X35194Y115325D02*
D03*
X30800D02*
D03*
D109*
X35395Y1435D02*
D03*
X30645D02*
D03*
D110*
X37007Y2085D02*
D03*
X29032D02*
D03*
D111*
X30795Y5085D02*
D03*
X35245D02*
D03*
M02*
