G04 Layer_Color=16711935*
%FSLAX43Y43*%
%MOMM*%
G71*
G01*
G75*
%ADD41C,0.127*%
%ADD78R,0.862X1.040*%
%ADD79R,1.040X0.862*%
%ADD81R,1.624X1.370*%
%ADD83R,1.116X0.913*%
%ADD84R,1.300X1.200*%
%ADD101C,1.878*%
%ADD102R,1.878X1.878*%
%ADD103R,1.878X1.878*%
%ADD104C,1.675*%
%ADD105R,1.600X1.600*%
%ADD106C,1.600*%
%ADD107C,1.268*%
%ADD108C,1.100*%
%ADD109O,1.050X2.625*%
G04:AMPARAMS|DCode=110|XSize=2mm|YSize=1.475mm|CornerRadius=0.394mm|HoleSize=0mm|Usage=FLASHONLY|Rotation=270.000|XOffset=0mm|YOffset=0mm|HoleType=Round|Shape=RoundedRectangle|*
%AMROUNDEDRECTD110*
21,1,2.000,0.688,0,0,270.0*
21,1,1.212,1.475,0,0,270.0*
1,1,0.787,-0.344,-0.606*
1,1,0.787,-0.344,0.606*
1,1,0.787,0.344,0.606*
1,1,0.787,0.344,-0.606*
%
%ADD110ROUNDEDRECTD110*%
%ADD111O,1.150X1.350*%
%ADD112R,0.913X1.116*%
%ADD113R,1.370X1.624*%
%ADD114R,0.989X1.116*%
%ADD115R,0.740X0.990*%
%ADD116C,0.420*%
%ADD117R,0.350X1.050*%
%ADD118R,2.300X1.500*%
%ADD119R,1.014X1.014*%
%ADD120R,1.014X1.370*%
%ADD121R,0.650X1.550*%
%ADD122C,1.624*%
%ADD123R,2.100X0.430*%
%ADD124R,0.430X2.100*%
%ADD125R,0.700X1.950*%
%ADD126R,3.000X2.000*%
%ADD127R,0.500X1.450*%
G36*
X26010Y68481D02*
X25400Y67871D01*
X24790Y68481D01*
Y68735D01*
X26010D01*
Y68481D01*
D02*
G37*
G36*
X27410D02*
X26800Y67871D01*
X26190Y68481D01*
Y68735D01*
X27410D01*
Y68481D01*
D02*
G37*
G36*
X34810Y67665D02*
X33590D01*
Y68630D01*
X34200Y68021D01*
X34810Y68630D01*
Y67665D01*
D02*
G37*
G36*
X13315Y56905D02*
Y56295D01*
X12350D01*
X12959Y56905D01*
X12350Y57515D01*
X13315D01*
Y56905D01*
D02*
G37*
G36*
X26010Y67465D02*
X24790D01*
Y68430D01*
X25400Y67821D01*
X26010Y68430D01*
Y67465D01*
D02*
G37*
G36*
X27410D02*
X26190D01*
Y68430D01*
X26800Y67821D01*
X27410Y68430D01*
Y67465D01*
D02*
G37*
G36*
X36210Y68681D02*
X35600Y68071D01*
X34990Y68681D01*
Y68935D01*
X36210D01*
Y68681D01*
D02*
G37*
G36*
X37810D02*
X37200Y68071D01*
X36590Y68681D01*
Y68935D01*
X37810D01*
Y68681D01*
D02*
G37*
G36*
X10471Y91750D02*
X11080Y91140D01*
X10115D01*
Y91750D01*
Y92360D01*
X11080D01*
X10471Y91750D01*
D02*
G37*
G36*
X36210Y67665D02*
X34990D01*
Y68630D01*
X35600Y68021D01*
X36210Y68630D01*
Y67665D01*
D02*
G37*
G36*
X37810D02*
X36590D01*
Y68630D01*
X37200Y68021D01*
X37810Y68630D01*
Y67665D01*
D02*
G37*
G36*
X34810Y68681D02*
X34200Y68071D01*
X33590Y68681D01*
Y68935D01*
X34810D01*
Y68681D01*
D02*
G37*
G36*
X12909Y56905D02*
X12299Y56295D01*
X12045D01*
Y57515D01*
X12299D01*
X12909Y56905D01*
D02*
G37*
G36*
X48635Y22000D02*
Y21390D01*
X47670D01*
X48279Y22000D01*
X47670Y22610D01*
X48635D01*
Y22000D01*
D02*
G37*
G36*
X15471Y42670D02*
X16080Y42060D01*
X15115D01*
Y42670D01*
Y43280D01*
X16080D01*
X15471Y42670D01*
D02*
G37*
G36*
X16385Y42060D02*
X16131D01*
X15521Y42670D01*
X16131Y43280D01*
X16385D01*
Y42060D01*
D02*
G37*
G36*
X47721Y20500D02*
X48330Y19890D01*
X47365D01*
Y20500D01*
Y21110D01*
X48330D01*
X47721Y20500D01*
D02*
G37*
G36*
X48635Y19890D02*
X48381D01*
X47771Y20500D01*
X48381Y21110D01*
X48635D01*
Y19890D01*
D02*
G37*
G36*
X48229Y22000D02*
X47619Y21390D01*
X47365D01*
Y22610D01*
X47619D01*
X48229Y22000D01*
D02*
G37*
G36*
X16490Y46135D02*
X16236D01*
X15626Y46745D01*
X16236Y47355D01*
X16490D01*
Y46135D01*
D02*
G37*
G36*
X15576Y48650D02*
X16185Y48040D01*
X15220D01*
Y48650D01*
Y49260D01*
X16185D01*
X15576Y48650D01*
D02*
G37*
G36*
X16490Y48040D02*
X16236D01*
X15626Y48650D01*
X16236Y49260D01*
X16490D01*
Y48040D01*
D02*
G37*
G36*
X15576Y44840D02*
X16185Y44230D01*
X15220D01*
Y44840D01*
Y45450D01*
X16185D01*
X15576Y44840D01*
D02*
G37*
G36*
X16490Y44230D02*
X16236D01*
X15626Y44840D01*
X16236Y45450D01*
X16490D01*
Y44230D01*
D02*
G37*
G36*
X15576Y46745D02*
X16185Y46135D01*
X15220D01*
Y46745D01*
Y47355D01*
X16185D01*
X15576Y46745D01*
D02*
G37*
G36*
X45700Y95030D02*
X45446D01*
X44836Y95640D01*
X45446Y96250D01*
X45700D01*
Y95030D01*
D02*
G37*
G36*
X38436Y98180D02*
X39045Y97570D01*
X38080D01*
Y98180D01*
Y98790D01*
X39045D01*
X38436Y98180D01*
D02*
G37*
G36*
X39350Y97570D02*
X39096D01*
X38486Y98180D01*
X39096Y98790D01*
X39350D01*
Y97570D01*
D02*
G37*
G36*
X38436Y95640D02*
X39045Y95030D01*
X38080D01*
Y95640D01*
Y96250D01*
X39045D01*
X38436Y95640D01*
D02*
G37*
G36*
X39350Y95030D02*
X39096D01*
X38486Y95640D01*
X39096Y96250D01*
X39350D01*
Y95030D01*
D02*
G37*
G36*
X44786Y95640D02*
X45395Y95030D01*
X44430D01*
Y95640D01*
Y96250D01*
X45395D01*
X44786Y95640D01*
D02*
G37*
G36*
X39350Y100110D02*
X39096D01*
X38486Y100720D01*
X39096Y101330D01*
X39350D01*
Y100110D01*
D02*
G37*
G36*
X44786Y100720D02*
X45395Y100110D01*
X44430D01*
Y100720D01*
Y101330D01*
X45395D01*
X44786Y100720D01*
D02*
G37*
G36*
X45700Y100110D02*
X45446D01*
X44836Y100720D01*
X45446Y101330D01*
X45700D01*
Y100110D01*
D02*
G37*
G36*
X44786Y98180D02*
X45395Y97570D01*
X44430D01*
Y98180D01*
Y98790D01*
X45395D01*
X44786Y98180D01*
D02*
G37*
G36*
X45700Y97570D02*
X45446D01*
X44836Y98180D01*
X45446Y98790D01*
X45700D01*
Y97570D01*
D02*
G37*
G36*
X38436Y100720D02*
X39045Y100110D01*
X38080D01*
Y100720D01*
Y101330D01*
X39045D01*
X38436Y100720D01*
D02*
G37*
G36*
X29860Y94631D02*
X29250Y94021D01*
X28640Y94631D01*
Y94885D01*
X29860D01*
Y94631D01*
D02*
G37*
G36*
X44786Y93100D02*
X45395Y92490D01*
X44430D01*
Y93100D01*
Y93710D01*
X45395D01*
X44786Y93100D01*
D02*
G37*
G36*
X45700Y92490D02*
X45446D01*
X44836Y93100D01*
X45446Y93710D01*
X45700D01*
Y92490D01*
D02*
G37*
G36*
X10979Y94000D02*
X10369Y93390D01*
X10115D01*
Y94610D01*
X10369D01*
X10979Y94000D01*
D02*
G37*
G36*
X11385Y91140D02*
X11131D01*
X10521Y91750D01*
X11131Y92360D01*
X11385D01*
Y91140D01*
D02*
G37*
G36*
X38436Y93100D02*
X39045Y92490D01*
X38080D01*
Y93100D01*
Y93710D01*
X39045D01*
X38436Y93100D01*
D02*
G37*
G36*
X39350Y92490D02*
X39096D01*
X38486Y93100D01*
X39096Y93710D01*
X39350D01*
Y92490D01*
D02*
G37*
G36*
X26610Y93920D02*
X26000Y94529D01*
X25390Y93920D01*
Y94885D01*
X26610D01*
Y93920D01*
D02*
G37*
G36*
X28360D02*
X27750Y94529D01*
X27140Y93920D01*
Y94885D01*
X28360D01*
Y93920D01*
D02*
G37*
G36*
X29860Y93615D02*
X28640D01*
Y94580D01*
X29250Y93971D01*
X29860Y94580D01*
Y93615D01*
D02*
G37*
G36*
X11385Y94000D02*
Y93390D01*
X10420D01*
X11029Y94000D01*
X10420Y94610D01*
X11385D01*
Y94000D01*
D02*
G37*
G36*
X26610Y93869D02*
Y93615D01*
X25390D01*
Y93869D01*
X26000Y94479D01*
X26610Y93869D01*
D02*
G37*
G36*
X28360D02*
Y93615D01*
X27140D01*
Y93869D01*
X27750Y94479D01*
X28360Y93869D01*
D02*
G37*
D41*
X0Y0D02*
X66000D01*
Y119300D01*
X0D02*
X66000D01*
X0Y0D02*
Y119300D01*
D78*
X40800Y64900D02*
D03*
Y63700D02*
D03*
X45500Y76500D02*
D03*
Y77700D02*
D03*
X24000Y67700D02*
D03*
Y68900D02*
D03*
X20800Y67700D02*
D03*
Y68900D02*
D03*
X47287Y59092D02*
D03*
Y57893D02*
D03*
X32500Y74350D02*
D03*
Y73150D02*
D03*
X16000Y74300D02*
D03*
Y75500D02*
D03*
X27920Y67735D02*
D03*
Y68935D02*
D03*
X29960Y9350D02*
D03*
Y8150D02*
D03*
X19600Y67700D02*
D03*
Y68900D02*
D03*
X48797Y72400D02*
D03*
Y71200D02*
D03*
X18400Y74300D02*
D03*
Y75500D02*
D03*
X34200Y63700D02*
D03*
Y64900D02*
D03*
X24400Y73500D02*
D03*
Y72300D02*
D03*
X28750Y9350D02*
D03*
Y8150D02*
D03*
X37500Y74350D02*
D03*
Y73150D02*
D03*
X31730Y101320D02*
D03*
Y100120D02*
D03*
X14800Y74300D02*
D03*
Y75500D02*
D03*
X18400Y71100D02*
D03*
Y72300D02*
D03*
X19983Y39725D02*
D03*
Y38525D02*
D03*
X46176Y57893D02*
D03*
Y59092D02*
D03*
X46600Y35800D02*
D03*
Y34600D02*
D03*
X17250Y101850D02*
D03*
Y100650D02*
D03*
X44110Y76500D02*
D03*
Y77700D02*
D03*
X17250Y104650D02*
D03*
Y105850D02*
D03*
X17200Y74300D02*
D03*
Y75500D02*
D03*
X42842Y32493D02*
D03*
Y33693D02*
D03*
X14800Y71100D02*
D03*
Y72300D02*
D03*
X30500Y100150D02*
D03*
Y101350D02*
D03*
X27400Y73500D02*
D03*
Y72300D02*
D03*
X42760Y76500D02*
D03*
Y77700D02*
D03*
X17200Y71100D02*
D03*
Y72300D02*
D03*
X16000Y71100D02*
D03*
Y72300D02*
D03*
X29349Y36232D02*
D03*
Y35033D02*
D03*
X35400Y63700D02*
D03*
Y64900D02*
D03*
X37200Y63700D02*
D03*
Y64900D02*
D03*
D79*
X50100Y1750D02*
D03*
X48900D02*
D03*
X49685Y77060D02*
D03*
X48485D02*
D03*
X19200Y62100D02*
D03*
X18000D02*
D03*
X30600Y36700D02*
D03*
X31800D02*
D03*
X49800Y74300D02*
D03*
X48600D02*
D03*
X15255Y56905D02*
D03*
X16455D02*
D03*
X19200Y60900D02*
D03*
X18000D02*
D03*
X38400Y63500D02*
D03*
X39600D02*
D03*
X25200Y32500D02*
D03*
X26400D02*
D03*
X53150Y4750D02*
D03*
X54350D02*
D03*
X23400Y32500D02*
D03*
X22200D02*
D03*
X49800Y75700D02*
D03*
X48600D02*
D03*
X36209Y8050D02*
D03*
X35009D02*
D03*
X52900Y77100D02*
D03*
X51700D02*
D03*
X47100Y1750D02*
D03*
X45900D02*
D03*
X43350Y64000D02*
D03*
X42150D02*
D03*
X15255Y58175D02*
D03*
X16455D02*
D03*
X26400Y16700D02*
D03*
X27600D02*
D03*
X47005Y46110D02*
D03*
X48205D02*
D03*
X43350Y65250D02*
D03*
X42150D02*
D03*
X19400Y52500D02*
D03*
X18200D02*
D03*
X39493Y8633D02*
D03*
X40693D02*
D03*
X51350Y4750D02*
D03*
X50150D02*
D03*
X20106Y46904D02*
D03*
X18906D02*
D03*
X31130Y16741D02*
D03*
X32330D02*
D03*
X36210Y36585D02*
D03*
X37410D02*
D03*
X28900Y32000D02*
D03*
X30100D02*
D03*
X46600Y51300D02*
D03*
X47800D02*
D03*
X36275Y9385D02*
D03*
X35075D02*
D03*
X31597Y32000D02*
D03*
X32797D02*
D03*
X33000Y64900D02*
D03*
X31800D02*
D03*
D81*
X47000Y40497D02*
D03*
Y37703D02*
D03*
X39750Y69353D02*
D03*
Y72147D02*
D03*
X42250Y69353D02*
D03*
Y72147D02*
D03*
D83*
X25400Y68989D02*
D03*
Y67274D02*
D03*
X26800D02*
D03*
Y68989D02*
D03*
X27750Y95076D02*
D03*
Y93361D02*
D03*
X29250Y95139D02*
D03*
Y93424D02*
D03*
X34200Y69189D02*
D03*
Y67475D02*
D03*
X35600Y69189D02*
D03*
Y67475D02*
D03*
X37200Y69189D02*
D03*
Y67475D02*
D03*
X26000Y95076D02*
D03*
Y93361D02*
D03*
D84*
X18395Y68868D02*
D03*
Y67167D02*
D03*
X15220Y68868D02*
D03*
Y67167D02*
D03*
X53250Y3100D02*
D03*
Y1400D02*
D03*
X16808Y68868D02*
D03*
Y67167D02*
D03*
X39900Y3050D02*
D03*
Y1350D02*
D03*
X13474Y68868D02*
D03*
Y67167D02*
D03*
X55500Y1400D02*
D03*
Y3100D02*
D03*
X22400Y67450D02*
D03*
Y69150D02*
D03*
X43175Y1340D02*
D03*
Y3040D02*
D03*
D101*
X16490Y93100D02*
D03*
X6330Y91830D02*
D03*
X8870Y6740D02*
D03*
X6330D02*
D03*
X8870Y9280D02*
D03*
X6330D02*
D03*
X8870Y11820D02*
D03*
X6330D02*
D03*
X8870Y14360D02*
D03*
X6330D02*
D03*
X8870Y16900D02*
D03*
X6330D02*
D03*
X8870Y19440D02*
D03*
X6330D02*
D03*
X8870Y21980D02*
D03*
X6330D02*
D03*
X8870Y24520D02*
D03*
X6330D02*
D03*
X8870Y27060D02*
D03*
X6330D02*
D03*
X8870Y29600D02*
D03*
X6330D02*
D03*
X8870Y32140D02*
D03*
X6330D02*
D03*
X8870Y34680D02*
D03*
X6330D02*
D03*
X8870Y37220D02*
D03*
X6330D02*
D03*
X8870Y39760D02*
D03*
X6330D02*
D03*
X8870Y42300D02*
D03*
X6330D02*
D03*
X8870Y44840D02*
D03*
X6330D02*
D03*
X8870Y47380D02*
D03*
X6330D02*
D03*
X8870Y49920D02*
D03*
X6330D02*
D03*
X8870Y52460D02*
D03*
X6330D02*
D03*
X8870Y55000D02*
D03*
X6330D02*
D03*
X8870Y57540D02*
D03*
X6330D02*
D03*
X8870Y60080D02*
D03*
X6330D02*
D03*
X8870Y62620D02*
D03*
X6330D02*
D03*
X8870Y65160D02*
D03*
X6330D02*
D03*
X8870Y67700D02*
D03*
X6330D02*
D03*
X8870Y70240D02*
D03*
X6330D02*
D03*
X8870Y72780D02*
D03*
X6330D02*
D03*
X8870Y75320D02*
D03*
X6330D02*
D03*
X8870Y77860D02*
D03*
X6330D02*
D03*
X8870Y80400D02*
D03*
X6330D02*
D03*
X8870Y82940D02*
D03*
X6330D02*
D03*
X8870Y85480D02*
D03*
X6330Y113420D02*
D03*
X59670Y6740D02*
D03*
X57130D02*
D03*
X59670Y9280D02*
D03*
X57130D02*
D03*
X59670Y11820D02*
D03*
X57130D02*
D03*
X59670Y14360D02*
D03*
X57130D02*
D03*
X59670Y16900D02*
D03*
X57130D02*
D03*
X59670Y19440D02*
D03*
X57130D02*
D03*
X59670Y21980D02*
D03*
X57130D02*
D03*
X59670Y24520D02*
D03*
X57130D02*
D03*
X59670Y27060D02*
D03*
X57130D02*
D03*
X59670Y29600D02*
D03*
X57130D02*
D03*
X59670Y32140D02*
D03*
X57130D02*
D03*
X59670Y34680D02*
D03*
X57130D02*
D03*
X59670Y37220D02*
D03*
X57130D02*
D03*
X59670Y39760D02*
D03*
X57130D02*
D03*
X59670Y42300D02*
D03*
X57130D02*
D03*
X59670Y44840D02*
D03*
X57130D02*
D03*
X59670Y47380D02*
D03*
X57130D02*
D03*
X59670Y49920D02*
D03*
X57130D02*
D03*
X59670Y52460D02*
D03*
X57130D02*
D03*
X59670Y55000D02*
D03*
X57130D02*
D03*
X59670Y57540D02*
D03*
X57130D02*
D03*
X59670Y60080D02*
D03*
X57130D02*
D03*
X59670Y62620D02*
D03*
X57130D02*
D03*
X59670Y65160D02*
D03*
X57130D02*
D03*
X59670Y67700D02*
D03*
X57130D02*
D03*
X59670Y70240D02*
D03*
X57130D02*
D03*
X59670Y72780D02*
D03*
X57130D02*
D03*
X59670Y75320D02*
D03*
X57130D02*
D03*
X59670Y77860D02*
D03*
X57130D02*
D03*
X59670Y80400D02*
D03*
X57130D02*
D03*
X59670Y82940D02*
D03*
X57130D02*
D03*
X59670Y85480D02*
D03*
X41890Y93100D02*
D03*
Y95640D02*
D03*
Y98180D02*
D03*
X59670Y113420D02*
D03*
D102*
X19030Y93100D02*
D03*
D103*
X6330Y89290D02*
D03*
Y85480D02*
D03*
Y115960D02*
D03*
X57130Y85480D02*
D03*
X41890Y100720D02*
D03*
X59670Y115960D02*
D03*
D104*
X19035Y105791D02*
D03*
Y100711D02*
D03*
X32429Y71505D02*
D03*
X37509D02*
D03*
D105*
X6330Y108340D02*
D03*
D106*
Y105800D02*
D03*
Y103260D02*
D03*
Y100720D02*
D03*
Y98180D02*
D03*
Y95640D02*
D03*
D107*
X55860Y100085D02*
D03*
Y105165D02*
D03*
D108*
X35194Y115325D02*
D03*
X30800D02*
D03*
D109*
X35395Y1435D02*
D03*
X30645D02*
D03*
D110*
X37007Y2085D02*
D03*
X29032D02*
D03*
D111*
X30795Y5085D02*
D03*
X35245D02*
D03*
D112*
X48826Y22000D02*
D03*
X47111D02*
D03*
X39604Y93100D02*
D03*
X37889D02*
D03*
X16744Y46745D02*
D03*
X15030D02*
D03*
X44239Y93100D02*
D03*
X45954D02*
D03*
X39604Y100720D02*
D03*
X37889D02*
D03*
X9861Y94000D02*
D03*
X11575D02*
D03*
X37889Y98180D02*
D03*
X39604D02*
D03*
X15030Y44840D02*
D03*
X16744D02*
D03*
X45954Y95640D02*
D03*
X44239D02*
D03*
X14925Y42670D02*
D03*
X16639D02*
D03*
X9925Y91750D02*
D03*
X11639D02*
D03*
X45954Y98180D02*
D03*
X44239D02*
D03*
X15030Y48650D02*
D03*
X16744D02*
D03*
X13505Y56905D02*
D03*
X11791D02*
D03*
X48889Y20500D02*
D03*
X47174D02*
D03*
X45954Y100720D02*
D03*
X44239D02*
D03*
X39604Y95640D02*
D03*
X37889D02*
D03*
D113*
X17797Y37700D02*
D03*
X15003D02*
D03*
X34853Y12250D02*
D03*
X37647D02*
D03*
D114*
X42262Y66750D02*
D03*
X40738D02*
D03*
D115*
X51604Y78500D02*
D03*
X53004D02*
D03*
D116*
X32000Y9250D02*
D03*
Y8750D02*
D03*
Y8250D02*
D03*
X32500Y9250D02*
D03*
Y8750D02*
D03*
Y8250D02*
D03*
X33000Y9250D02*
D03*
Y8750D02*
D03*
Y8250D02*
D03*
X33500Y9250D02*
D03*
Y8750D02*
D03*
D117*
X47075Y73325D02*
D03*
X46625D02*
D03*
X46175D02*
D03*
X45725D02*
D03*
X45275D02*
D03*
X44825D02*
D03*
Y70475D02*
D03*
X45275D02*
D03*
X45725D02*
D03*
X46175D02*
D03*
X46625D02*
D03*
X47075D02*
D03*
D118*
X45950Y71900D02*
D03*
D119*
X38947Y7016D02*
D03*
X40853D02*
D03*
D120*
X39913Y4984D02*
D03*
D121*
X45300Y3925D02*
D03*
X47200D02*
D03*
Y6075D02*
D03*
X46250D02*
D03*
X45300D02*
D03*
D122*
X22568Y60352D02*
D03*
D123*
X22250Y58670D02*
D03*
Y58170D02*
D03*
Y57670D02*
D03*
Y57170D02*
D03*
Y56670D02*
D03*
Y56170D02*
D03*
Y55670D02*
D03*
Y55170D02*
D03*
Y54670D02*
D03*
Y54170D02*
D03*
Y53670D02*
D03*
Y53170D02*
D03*
Y52670D02*
D03*
Y52170D02*
D03*
Y51670D02*
D03*
Y51170D02*
D03*
Y50670D02*
D03*
Y50170D02*
D03*
Y49670D02*
D03*
Y49170D02*
D03*
Y48670D02*
D03*
Y48170D02*
D03*
Y47670D02*
D03*
Y47170D02*
D03*
Y46670D02*
D03*
Y46170D02*
D03*
Y45670D02*
D03*
Y45170D02*
D03*
Y44670D02*
D03*
Y44170D02*
D03*
Y43670D02*
D03*
Y43170D02*
D03*
Y42670D02*
D03*
Y42170D02*
D03*
Y41670D02*
D03*
Y41170D02*
D03*
X43750D02*
D03*
Y41670D02*
D03*
Y42170D02*
D03*
Y42670D02*
D03*
Y43170D02*
D03*
Y43670D02*
D03*
Y44170D02*
D03*
Y44670D02*
D03*
Y45170D02*
D03*
Y45670D02*
D03*
Y46170D02*
D03*
Y46670D02*
D03*
Y47170D02*
D03*
Y47670D02*
D03*
Y48170D02*
D03*
Y48670D02*
D03*
Y49170D02*
D03*
Y49670D02*
D03*
Y50170D02*
D03*
Y50670D02*
D03*
Y51170D02*
D03*
Y51670D02*
D03*
Y52170D02*
D03*
Y52670D02*
D03*
Y53170D02*
D03*
Y53670D02*
D03*
Y54170D02*
D03*
Y54670D02*
D03*
Y55170D02*
D03*
Y55670D02*
D03*
Y56170D02*
D03*
Y56670D02*
D03*
Y57170D02*
D03*
Y57670D02*
D03*
Y58170D02*
D03*
Y58670D02*
D03*
D124*
X24250Y39170D02*
D03*
X24750D02*
D03*
X25250D02*
D03*
X25750D02*
D03*
X26250D02*
D03*
X26750D02*
D03*
X27250D02*
D03*
X27750D02*
D03*
X28250D02*
D03*
X28750D02*
D03*
X29250D02*
D03*
X29750D02*
D03*
X30250D02*
D03*
X30750D02*
D03*
X31250D02*
D03*
X31750D02*
D03*
X32250D02*
D03*
X32750D02*
D03*
X33250D02*
D03*
X33750D02*
D03*
X34250D02*
D03*
X34750D02*
D03*
X35250D02*
D03*
X35750D02*
D03*
X36250D02*
D03*
X36750D02*
D03*
X37250D02*
D03*
X37750D02*
D03*
X38250D02*
D03*
X38750D02*
D03*
X39250D02*
D03*
X39750D02*
D03*
X40250D02*
D03*
X40750D02*
D03*
X41250D02*
D03*
X41750D02*
D03*
Y60670D02*
D03*
X41250D02*
D03*
X40750D02*
D03*
X40250D02*
D03*
X39750D02*
D03*
X39250D02*
D03*
X38750D02*
D03*
X38250D02*
D03*
X37750D02*
D03*
X37250D02*
D03*
X36750D02*
D03*
X36250D02*
D03*
X35750D02*
D03*
X35250D02*
D03*
X34750D02*
D03*
X34250D02*
D03*
X33750D02*
D03*
X33250D02*
D03*
X32750D02*
D03*
X32250D02*
D03*
X31750D02*
D03*
X31250D02*
D03*
X30750D02*
D03*
X30250D02*
D03*
X29750D02*
D03*
X29250D02*
D03*
X28750D02*
D03*
X28250D02*
D03*
X27750D02*
D03*
X27250D02*
D03*
X26750D02*
D03*
X26250D02*
D03*
X25750D02*
D03*
X25250D02*
D03*
X24750D02*
D03*
X24250D02*
D03*
D125*
X21965Y18870D02*
D03*
X22765D02*
D03*
X23565D02*
D03*
X24365D02*
D03*
X25165D02*
D03*
X25965D02*
D03*
X26765D02*
D03*
X27565D02*
D03*
X28365D02*
D03*
X29165D02*
D03*
X29965D02*
D03*
X30765D02*
D03*
X31565D02*
D03*
X32365D02*
D03*
X33165D02*
D03*
X33965D02*
D03*
X34765D02*
D03*
X35565D02*
D03*
X36365D02*
D03*
X37165D02*
D03*
X37965D02*
D03*
X38765D02*
D03*
X39565D02*
D03*
X40365D02*
D03*
X41165D02*
D03*
X41965D02*
D03*
X42765D02*
D03*
Y30170D02*
D03*
X41965D02*
D03*
X41165D02*
D03*
X40365D02*
D03*
X39565D02*
D03*
X38765D02*
D03*
X37965D02*
D03*
X37165D02*
D03*
X36365D02*
D03*
X35565D02*
D03*
X34765D02*
D03*
X33965D02*
D03*
X33165D02*
D03*
X32365D02*
D03*
X31565D02*
D03*
X30765D02*
D03*
X29965D02*
D03*
X29165D02*
D03*
X28365D02*
D03*
X27565D02*
D03*
X26765D02*
D03*
X25965D02*
D03*
X25165D02*
D03*
X24365D02*
D03*
X23565D02*
D03*
X22765D02*
D03*
X21965D02*
D03*
D126*
X33020Y2085D02*
D03*
D127*
X34320Y4760D02*
D03*
X33670D02*
D03*
X33020D02*
D03*
X32370D02*
D03*
X31720D02*
D03*
M02*
