G04 Layer_Color=128*
%FSLAX43Y43*%
%MOMM*%
G71*
G01*
G75*
%ADD41C,0.127*%
%ADD131C,0.051*%
D41*
X0Y0D02*
Y119300D01*
X66000D01*
Y0D02*
Y119300D01*
X0Y0D02*
X66000D01*
D131*
X41390Y100720D02*
X42390D01*
X41890Y100220D02*
Y101220D01*
X41390Y98180D02*
X42390D01*
X41890Y97680D02*
Y98680D01*
X41390Y95640D02*
X42390D01*
X41890Y95140D02*
Y96140D01*
X41390Y93100D02*
X42390D01*
X41890Y92600D02*
Y93600D01*
X30300Y115325D02*
X31300D01*
X30800Y114825D02*
Y115825D01*
X34694Y115325D02*
X35694D01*
X35194Y114825D02*
Y115825D01*
X5830Y115960D02*
X6830D01*
X6330Y115460D02*
Y116460D01*
X5830Y113420D02*
X6830D01*
X6330Y112920D02*
Y113920D01*
X18685Y100711D02*
X19385D01*
X19035Y100361D02*
Y101061D01*
X18685Y105791D02*
X19385D01*
X19035Y105441D02*
Y106141D01*
X5830Y85480D02*
X6830D01*
X6330Y84980D02*
Y85980D01*
X8370Y85480D02*
X9370D01*
X8870Y84980D02*
Y85980D01*
X5830Y82940D02*
X6830D01*
X6330Y82440D02*
Y83440D01*
X8370Y82940D02*
X9370D01*
X8870Y82440D02*
Y83440D01*
X5830Y80400D02*
X6830D01*
X6330Y79900D02*
Y80900D01*
X8370Y80400D02*
X9370D01*
X8870Y79900D02*
Y80900D01*
X5830Y77860D02*
X6830D01*
X6330Y77360D02*
Y78360D01*
X8370Y77860D02*
X9370D01*
X8870Y77360D02*
Y78360D01*
X5830Y75320D02*
X6830D01*
X6330Y74820D02*
Y75820D01*
X8370Y75320D02*
X9370D01*
X8870Y74820D02*
Y75820D01*
X5830Y72780D02*
X6830D01*
X6330Y72280D02*
Y73280D01*
X8370Y72780D02*
X9370D01*
X8870Y72280D02*
Y73280D01*
X5830Y70240D02*
X6830D01*
X6330Y69740D02*
Y70740D01*
X8370Y70240D02*
X9370D01*
X8870Y69740D02*
Y70740D01*
X5830Y67700D02*
X6830D01*
X6330Y67200D02*
Y68200D01*
X8370Y67700D02*
X9370D01*
X8870Y67200D02*
Y68200D01*
X5830Y65160D02*
X6830D01*
X6330Y64660D02*
Y65660D01*
X8370Y65160D02*
X9370D01*
X8870Y64660D02*
Y65660D01*
X5830Y62620D02*
X6830D01*
X6330Y62120D02*
Y63120D01*
X8370Y62620D02*
X9370D01*
X8870Y62120D02*
Y63120D01*
X5830Y60080D02*
X6830D01*
X6330Y59580D02*
Y60580D01*
X8370Y60080D02*
X9370D01*
X8870Y59580D02*
Y60580D01*
X5830Y57540D02*
X6830D01*
X6330Y57040D02*
Y58040D01*
X8370Y57540D02*
X9370D01*
X8870Y57040D02*
Y58040D01*
X5830Y55000D02*
X6830D01*
X6330Y54500D02*
Y55500D01*
X8370Y55000D02*
X9370D01*
X8870Y54500D02*
Y55500D01*
X5830Y52460D02*
X6830D01*
X6330Y51960D02*
Y52960D01*
X8370Y52460D02*
X9370D01*
X8870Y51960D02*
Y52960D01*
X5830Y49920D02*
X6830D01*
X6330Y49420D02*
Y50420D01*
X8370Y49920D02*
X9370D01*
X8870Y49420D02*
Y50420D01*
X5830Y47380D02*
X6830D01*
X6330Y46880D02*
Y47880D01*
X8370Y47380D02*
X9370D01*
X8870Y46880D02*
Y47880D01*
X5830Y44840D02*
X6830D01*
X6330Y44340D02*
Y45340D01*
X8370Y44840D02*
X9370D01*
X8870Y44340D02*
Y45340D01*
X5830Y42300D02*
X6830D01*
X6330Y41800D02*
Y42800D01*
X8370Y42300D02*
X9370D01*
X8870Y41800D02*
Y42800D01*
X5830Y39760D02*
X6830D01*
X6330Y39260D02*
Y40260D01*
X8370Y39760D02*
X9370D01*
X8870Y39260D02*
Y40260D01*
X5830Y37220D02*
X6830D01*
X6330Y36720D02*
Y37720D01*
X8370Y37220D02*
X9370D01*
X8870Y36720D02*
Y37720D01*
X5830Y34680D02*
X6830D01*
X6330Y34180D02*
Y35180D01*
X8370Y34680D02*
X9370D01*
X8870Y34180D02*
Y35180D01*
X5830Y32140D02*
X6830D01*
X6330Y31640D02*
Y32640D01*
X8370Y32140D02*
X9370D01*
X8870Y31640D02*
Y32640D01*
X5830Y29600D02*
X6830D01*
X6330Y29100D02*
Y30100D01*
X8370Y29600D02*
X9370D01*
X8870Y29100D02*
Y30100D01*
X5830Y27060D02*
X6830D01*
X6330Y26560D02*
Y27560D01*
X8370Y27060D02*
X9370D01*
X8870Y26560D02*
Y27560D01*
X5830Y24520D02*
X6830D01*
X6330Y24020D02*
Y25020D01*
X8370Y24520D02*
X9370D01*
X8870Y24020D02*
Y25020D01*
X5830Y21980D02*
X6830D01*
X6330Y21480D02*
Y22480D01*
X8370Y21980D02*
X9370D01*
X8870Y21480D02*
Y22480D01*
X5830Y19440D02*
X6830D01*
X6330Y18940D02*
Y19940D01*
X8370Y19440D02*
X9370D01*
X8870Y18940D02*
Y19940D01*
X5830Y16900D02*
X6830D01*
X6330Y16400D02*
Y17400D01*
X8370Y16900D02*
X9370D01*
X8870Y16400D02*
Y17400D01*
X5830Y14360D02*
X6830D01*
X6330Y13860D02*
Y14860D01*
X8370Y14360D02*
X9370D01*
X8870Y13860D02*
Y14860D01*
X5830Y11820D02*
X6830D01*
X6330Y11320D02*
Y12320D01*
X8370Y11820D02*
X9370D01*
X8870Y11320D02*
Y12320D01*
X5830Y9280D02*
X6830D01*
X6330Y8780D02*
Y9780D01*
X8370Y9280D02*
X9370D01*
X8870Y8780D02*
Y9780D01*
X5830Y6740D02*
X6830D01*
X6330Y6240D02*
Y7240D01*
X8370Y6740D02*
X9370D01*
X8870Y6240D02*
Y7240D01*
X56630Y85480D02*
X57630D01*
X57130Y84980D02*
Y85980D01*
X59170Y85480D02*
X60170D01*
X59670Y84980D02*
Y85980D01*
X56630Y82940D02*
X57630D01*
X57130Y82440D02*
Y83440D01*
X59170Y82940D02*
X60170D01*
X59670Y82440D02*
Y83440D01*
X56630Y80400D02*
X57630D01*
X57130Y79900D02*
Y80900D01*
X59170Y80400D02*
X60170D01*
X59670Y79900D02*
Y80900D01*
X56630Y77860D02*
X57630D01*
X57130Y77360D02*
Y78360D01*
X59170Y77860D02*
X60170D01*
X59670Y77360D02*
Y78360D01*
X56630Y75320D02*
X57630D01*
X57130Y74820D02*
Y75820D01*
X59170Y75320D02*
X60170D01*
X59670Y74820D02*
Y75820D01*
X56630Y72780D02*
X57630D01*
X57130Y72280D02*
Y73280D01*
X59170Y72780D02*
X60170D01*
X59670Y72280D02*
Y73280D01*
X56630Y70240D02*
X57630D01*
X57130Y69740D02*
Y70740D01*
X59170Y70240D02*
X60170D01*
X59670Y69740D02*
Y70740D01*
X56630Y67700D02*
X57630D01*
X57130Y67200D02*
Y68200D01*
X59170Y67700D02*
X60170D01*
X59670Y67200D02*
Y68200D01*
X56630Y65160D02*
X57630D01*
X57130Y64660D02*
Y65660D01*
X59170Y65160D02*
X60170D01*
X59670Y64660D02*
Y65660D01*
X56630Y62620D02*
X57630D01*
X57130Y62120D02*
Y63120D01*
X59170Y62620D02*
X60170D01*
X59670Y62120D02*
Y63120D01*
X56630Y60080D02*
X57630D01*
X57130Y59580D02*
Y60580D01*
X59170Y60080D02*
X60170D01*
X59670Y59580D02*
Y60580D01*
X56630Y57540D02*
X57630D01*
X57130Y57040D02*
Y58040D01*
X59170Y57540D02*
X60170D01*
X59670Y57040D02*
Y58040D01*
X56630Y55000D02*
X57630D01*
X57130Y54500D02*
Y55500D01*
X59170Y55000D02*
X60170D01*
X59670Y54500D02*
Y55500D01*
X56630Y52460D02*
X57630D01*
X57130Y51960D02*
Y52960D01*
X59170Y52460D02*
X60170D01*
X59670Y51960D02*
Y52960D01*
X56630Y49920D02*
X57630D01*
X57130Y49420D02*
Y50420D01*
X59170Y49920D02*
X60170D01*
X59670Y49420D02*
Y50420D01*
X56630Y47380D02*
X57630D01*
X57130Y46880D02*
Y47880D01*
X59170Y47380D02*
X60170D01*
X59670Y46880D02*
Y47880D01*
X56630Y44840D02*
X57630D01*
X57130Y44340D02*
Y45340D01*
X59170Y44840D02*
X60170D01*
X59670Y44340D02*
Y45340D01*
X56630Y42300D02*
X57630D01*
X57130Y41800D02*
Y42800D01*
X59170Y42300D02*
X60170D01*
X59670Y41800D02*
Y42800D01*
X56630Y39760D02*
X57630D01*
X57130Y39260D02*
Y40260D01*
X59170Y39760D02*
X60170D01*
X59670Y39260D02*
Y40260D01*
X56630Y37220D02*
X57630D01*
X57130Y36720D02*
Y37720D01*
X59170Y37220D02*
X60170D01*
X59670Y36720D02*
Y37720D01*
X56630Y34680D02*
X57630D01*
X57130Y34180D02*
Y35180D01*
X59170Y34680D02*
X60170D01*
X59670Y34180D02*
Y35180D01*
X56630Y32140D02*
X57630D01*
X57130Y31640D02*
Y32640D01*
X59170Y32140D02*
X60170D01*
X59670Y31640D02*
Y32640D01*
X56630Y29600D02*
X57630D01*
X57130Y29100D02*
Y30100D01*
X59170Y29600D02*
X60170D01*
X59670Y29100D02*
Y30100D01*
X56630Y27060D02*
X57630D01*
X57130Y26560D02*
Y27560D01*
X59170Y27060D02*
X60170D01*
X59670Y26560D02*
Y27560D01*
X56630Y24520D02*
X57630D01*
X57130Y24020D02*
Y25020D01*
X59170Y24520D02*
X60170D01*
X59670Y24020D02*
Y25020D01*
X56630Y21980D02*
X57630D01*
X57130Y21480D02*
Y22480D01*
X59170Y21980D02*
X60170D01*
X59670Y21480D02*
Y22480D01*
X56630Y19440D02*
X57630D01*
X57130Y18940D02*
Y19940D01*
X59170Y19440D02*
X60170D01*
X59670Y18940D02*
Y19940D01*
X56630Y16900D02*
X57630D01*
X57130Y16400D02*
Y17400D01*
X59170Y16900D02*
X60170D01*
X59670Y16400D02*
Y17400D01*
X56630Y14360D02*
X57630D01*
X57130Y13860D02*
Y14860D01*
X59170Y14360D02*
X60170D01*
X59670Y13860D02*
Y14860D01*
X56630Y11820D02*
X57630D01*
X57130Y11320D02*
Y12320D01*
X59170Y11820D02*
X60170D01*
X59670Y11320D02*
Y12320D01*
X56630Y9280D02*
X57630D01*
X57130Y8780D02*
Y9780D01*
X59170Y9280D02*
X60170D01*
X59670Y8780D02*
Y9780D01*
X56630Y6740D02*
X57630D01*
X57130Y6240D02*
Y7240D01*
X59170Y6740D02*
X60170D01*
X59670Y6240D02*
Y7240D01*
X37159Y71505D02*
X37859D01*
X37509Y71155D02*
Y71855D01*
X32079Y71505D02*
X32779D01*
X32429Y71155D02*
Y71855D01*
X5880Y95640D02*
X6780D01*
X6330Y95190D02*
Y96090D01*
X5880Y98180D02*
X6780D01*
X6330Y97730D02*
Y98630D01*
X5880Y100720D02*
X6780D01*
X6330Y100270D02*
Y101170D01*
X5880Y103260D02*
X6780D01*
X6330Y102810D02*
Y103710D01*
X5880Y105800D02*
X6780D01*
X6330Y105350D02*
Y106250D01*
X5880Y108340D02*
X6780D01*
X6330Y107890D02*
Y108790D01*
X55260Y105165D02*
X56460D01*
X55860Y104565D02*
Y105765D01*
X55260Y100085D02*
X56460D01*
X55860Y99485D02*
Y100685D01*
X5830Y89290D02*
X6830D01*
X6330Y88790D02*
Y89790D01*
X5830Y91830D02*
X6830D01*
X6330Y91330D02*
Y92330D01*
X18530Y93100D02*
X19530D01*
X19030Y92600D02*
Y93600D01*
X15990Y93100D02*
X16990D01*
X16490Y92600D02*
Y93600D01*
X59170Y115960D02*
X60170D01*
X59670Y115460D02*
Y116460D01*
X59170Y113420D02*
X60170D01*
X59670Y112920D02*
Y113920D01*
X30450Y5075D02*
X31100D01*
X30775Y4750D02*
Y5400D01*
X34900Y5075D02*
X35550D01*
X35225Y4750D02*
Y5400D01*
X30325Y1575D02*
X31225D01*
X30775Y1125D02*
Y2025D01*
X34775Y1575D02*
X35675D01*
X35225Y1125D02*
Y2025D01*
X28425Y2050D02*
X29225D01*
X28825Y1650D02*
Y2450D01*
X36775Y2050D02*
X37575D01*
X37175Y1650D02*
Y2450D01*
X46450Y84100D02*
X46750D01*
X46600Y83950D02*
Y84250D01*
X46025Y68300D02*
X46325D01*
X46175Y68150D02*
Y68450D01*
X46661Y68900D02*
X46961D01*
X46811Y68750D02*
Y69050D01*
X48450Y68800D02*
X48750D01*
X48600Y68650D02*
Y68950D01*
X45450Y68900D02*
X45750D01*
X45600Y68750D02*
Y69050D01*
X44750Y69400D02*
X45050D01*
X44900Y69250D02*
Y69550D01*
X38311Y64398D02*
X38611D01*
X38461Y64248D02*
Y64548D01*
X39148Y64700D02*
X39448D01*
X39298Y64550D02*
Y64850D01*
X40750Y79900D02*
X41050D01*
X40900Y79750D02*
Y80050D01*
X40250Y80500D02*
X40550D01*
X40400Y80350D02*
Y80650D01*
X48750Y60069D02*
X49050D01*
X48900Y59919D02*
Y60219D01*
X48250Y60701D02*
X48550D01*
X48400Y60551D02*
Y60851D01*
X47650Y61323D02*
X47950D01*
X47800Y61173D02*
Y61473D01*
X49100Y62000D02*
X49400D01*
X49250Y61850D02*
Y62150D01*
X52100Y59250D02*
X52400D01*
X52250Y59100D02*
Y59400D01*
X46855Y62000D02*
X47155D01*
X47005Y61850D02*
Y62150D01*
X52130Y71200D02*
X52430D01*
X52280Y71050D02*
Y71350D01*
X47450Y71900D02*
X47750D01*
X47600Y71750D02*
Y72050D01*
X45195Y59081D02*
X45495D01*
X45345Y58931D02*
Y59231D01*
X48550Y91250D02*
X48850D01*
X48700Y91100D02*
Y91400D01*
X47850Y92000D02*
X48150D01*
X48000Y91850D02*
Y92150D01*
X49650Y95800D02*
X49950D01*
X49800Y95650D02*
Y95950D01*
X41600Y117000D02*
X41900D01*
X41750Y116850D02*
Y117150D01*
X44750Y117900D02*
X45050D01*
X44900Y117750D02*
Y118050D01*
X29450Y82940D02*
X29750D01*
X29600Y82790D02*
Y83090D01*
X19039Y39760D02*
X19339D01*
X19189Y39610D02*
Y39910D01*
X18350Y81900D02*
X18650D01*
X18500Y81750D02*
Y82050D01*
X41848Y7046D02*
X42148D01*
X41998Y6896D02*
Y7196D01*
X19674Y71034D02*
X19974D01*
X19824Y70884D02*
Y71184D01*
X21896Y71034D02*
X22196D01*
X22046Y70884D02*
Y71184D01*
X48550Y82400D02*
X48850D01*
X48700Y82250D02*
Y82550D01*
X25859Y92416D02*
X26159D01*
X26009Y92266D02*
Y92566D01*
X45232Y51952D02*
X45533D01*
X45382Y51802D02*
Y52102D01*
X26550Y112800D02*
X26850D01*
X26700Y112650D02*
Y112950D01*
X50099Y83170D02*
X50399D01*
X50249Y83020D02*
Y83320D01*
X48485Y106435D02*
X48785D01*
X48635Y106285D02*
Y106585D01*
X38736Y12277D02*
X39036D01*
X38886Y12127D02*
Y12427D01*
X29957Y32812D02*
X30257D01*
X30107Y32662D02*
Y32962D01*
X23706Y45983D02*
X24006D01*
X23856Y45833D02*
Y46133D01*
X11450Y58000D02*
X11750D01*
X11600Y57850D02*
Y58150D01*
X32656Y32812D02*
X32956D01*
X32806Y32662D02*
Y32962D01*
X31263Y35791D02*
X31562D01*
X31413Y35641D02*
Y35941D01*
X24595Y40713D02*
X24895D01*
X24745Y40562D02*
Y40862D01*
X31207Y8750D02*
X31507D01*
X31357Y8600D02*
Y8900D01*
X42895Y20530D02*
X43195D01*
X43045Y20380D02*
Y20680D01*
X47150Y33600D02*
X47450D01*
X47300Y33450D02*
Y33750D01*
X44915Y38331D02*
X45215D01*
X45065Y38181D02*
Y38481D01*
X42659Y34560D02*
X42959D01*
X42809Y34410D02*
Y34710D01*
X16848Y62112D02*
X17148D01*
X16998Y61962D02*
Y62262D01*
X16848Y60842D02*
X17148D01*
X16998Y60692D02*
Y60992D01*
X26787Y107191D02*
X27087D01*
X26937Y107041D02*
Y107341D01*
X32850Y3074D02*
X33150D01*
X33000Y2924D02*
Y3224D01*
X23960Y110534D02*
X24260D01*
X24110Y110384D02*
Y110684D01*
X25960Y31600D02*
X26260D01*
X26110Y31450D02*
Y31750D01*
X36241Y103930D02*
X36541D01*
X36391Y103780D02*
Y104080D01*
X22055Y31664D02*
X22355D01*
X22205Y31514D02*
Y31814D01*
X27929Y74368D02*
X28229D01*
X28079Y74217D02*
Y74518D01*
X20626Y38490D02*
X20926D01*
X20776Y38340D02*
Y38640D01*
X15070Y69923D02*
X15370D01*
X15220Y69772D02*
Y70073D01*
X22214Y70240D02*
X22514D01*
X22364Y70090D02*
Y70390D01*
X23452Y73542D02*
X23752D01*
X23602Y73392D02*
Y73692D01*
X15864Y70081D02*
X16164D01*
X16014Y69931D02*
Y70231D01*
X40079Y65653D02*
X40379D01*
X40229Y65503D02*
Y65803D01*
X37250Y35700D02*
X37550D01*
X37400Y35550D02*
Y35850D01*
X33993Y65922D02*
X34293D01*
X34143Y65772D02*
Y66072D01*
X17102Y52460D02*
X17402D01*
X17252Y52310D02*
Y52610D01*
X41964Y57904D02*
X42264D01*
X42114Y57754D02*
Y58054D01*
X29105Y83962D02*
X29405D01*
X29255Y83812D02*
Y84112D01*
X49201Y51349D02*
X49501D01*
X49351Y51199D02*
Y51499D01*
X14943Y36331D02*
X15243D01*
X15093Y36181D02*
Y36481D01*
X37965Y96755D02*
X38265D01*
X38115Y96605D02*
Y96905D01*
X41531Y8633D02*
X41831D01*
X41681Y8483D02*
Y8783D01*
X34138Y6309D02*
X34438D01*
X34288Y6159D02*
Y6459D01*
X46082Y7378D02*
X46382D01*
X46232Y7228D02*
Y7528D01*
X17100Y103136D02*
X17400D01*
X17250Y102986D02*
Y103286D01*
X32350Y75582D02*
X32650D01*
X32500Y75432D02*
Y75732D01*
X30310Y102240D02*
X30610D01*
X30460Y102090D02*
Y102390D01*
X27452Y15789D02*
X27753D01*
X27603Y15639D02*
Y15939D01*
X32215Y15789D02*
X32515D01*
X32365Y15639D02*
Y15939D01*
X31707Y65795D02*
X32007D01*
X31857Y65645D02*
Y65945D01*
X39835Y114594D02*
X40135D01*
X39985Y114444D02*
Y114744D01*
X41201Y109610D02*
X41501D01*
X41351Y109460D02*
Y109760D01*
X42051Y108305D02*
X42351D01*
X42201Y108155D02*
Y108455D01*
X44819Y115960D02*
X45119D01*
X44969Y115810D02*
Y116110D01*
X43010Y113176D02*
X43310D01*
X43160Y113026D02*
Y113326D01*
X38569Y83980D02*
X38869D01*
X38719Y83830D02*
Y84130D01*
X39272Y81961D02*
X39572D01*
X39422Y81811D02*
Y82111D01*
X12726Y113825D02*
X13026D01*
X12876Y113675D02*
Y113975D01*
X28729Y109575D02*
X29029D01*
X28879Y109425D02*
Y109725D01*
X31247Y114176D02*
X31547D01*
X31397Y114026D02*
Y114326D01*
X30310Y107416D02*
X30610D01*
X30460Y107266D02*
Y107566D01*
X31851Y92823D02*
X32151D01*
X32001Y92673D02*
Y92973D01*
X22690Y102191D02*
X22990D01*
X22840Y102041D02*
Y102341D01*
X22690Y110534D02*
X22990D01*
X22840Y110384D02*
Y110684D01*
X20150Y113516D02*
X20450D01*
X20300Y113366D02*
Y113666D01*
X25865Y110400D02*
X26165D01*
X26015Y110250D02*
Y110550D01*
X23150Y95331D02*
X23450D01*
X23300Y95181D02*
Y95481D01*
X27550Y90300D02*
X27850D01*
X27700Y90150D02*
Y90450D01*
X39274Y45520D02*
X39574D01*
X39424Y45370D02*
Y45670D01*
X36953Y59143D02*
X37253D01*
X37103Y58993D02*
Y59293D01*
X33826Y35454D02*
X34126D01*
X33976Y35304D02*
Y35604D01*
X44597Y7642D02*
X44897D01*
X44747Y7492D02*
Y7792D01*
X46508Y19537D02*
X46808D01*
X46658Y19387D02*
Y19687D01*
X45868Y32458D02*
X46167D01*
X46018Y32307D02*
Y32607D01*
X31173Y6938D02*
X31473D01*
X31323Y6788D02*
Y7088D01*
X34769Y10384D02*
X35069D01*
X34919Y10234D02*
Y10534D01*
X29008Y57400D02*
X29308D01*
X29158Y57250D02*
Y57550D01*
X49550Y67800D02*
X49850D01*
X49700Y67650D02*
Y67950D01*
X34102Y58346D02*
X34402D01*
X34252Y58196D02*
Y58496D01*
X32072Y58243D02*
X32372D01*
X32222Y58093D02*
Y58393D01*
X35967Y57188D02*
X36267D01*
X36117Y57038D02*
Y57338D01*
X40502Y59219D02*
X40802D01*
X40652Y59069D02*
Y59369D01*
X49550Y68800D02*
X49850D01*
X49700Y68650D02*
Y68950D01*
X33327Y58719D02*
X33627D01*
X33477Y58569D02*
Y58869D01*
X41402Y46136D02*
X41702D01*
X41552Y45986D02*
Y46286D01*
X32850Y40713D02*
X33150D01*
X33000Y40562D02*
Y40862D01*
X42840Y60679D02*
X43140D01*
X42990Y60529D02*
Y60829D01*
X51035Y67726D02*
X51335D01*
X51185Y67576D02*
Y67876D01*
X37177Y62293D02*
X37477D01*
X37327Y62143D02*
Y62443D01*
X25880Y96347D02*
X26180D01*
X26030Y96197D02*
Y96497D01*
X25228Y45934D02*
X25528D01*
X25378Y45784D02*
Y46084D01*
X33683Y42382D02*
X33983D01*
X33833Y42232D02*
Y42532D01*
X36184Y31664D02*
X36484D01*
X36334Y31514D02*
Y31814D01*
X28147Y44309D02*
X28447D01*
X28297Y44159D02*
Y44459D01*
X14650Y73300D02*
X14950D01*
X14800Y73150D02*
Y73450D01*
X13927Y42935D02*
X14227D01*
X14077Y42785D02*
Y43085D01*
X36191Y99763D02*
X36491D01*
X36341Y99613D02*
Y99913D01*
X12650Y110200D02*
X12950D01*
X12800Y110050D02*
Y110350D01*
X11036Y100700D02*
X11336D01*
X11186Y100550D02*
Y100850D01*
X26850Y44152D02*
X27150D01*
X27000Y44002D02*
Y44302D01*
X29542Y27128D02*
X29842D01*
X29692Y26978D02*
Y27278D01*
X18278Y24282D02*
X18578D01*
X18428Y24132D02*
Y24432D01*
X31021Y45200D02*
X31321D01*
X31171Y45050D02*
Y45350D01*
X16657Y66167D02*
X16958D01*
X16808Y66017D02*
Y66317D01*
X18245Y66113D02*
X18545D01*
X18395Y65963D02*
Y66262D01*
X14118Y65954D02*
X14417D01*
X14267Y65804D02*
Y66104D01*
X42177Y21372D02*
X42477D01*
X42327Y21222D02*
Y21522D01*
X40343Y41898D02*
X40643D01*
X40493Y41748D02*
Y42048D01*
X38882Y27695D02*
X39182D01*
X39033Y27545D02*
Y27845D01*
X48979Y30870D02*
X49279D01*
X49129Y30720D02*
Y31020D01*
X26627Y20710D02*
X26927D01*
X26777Y20560D02*
Y20860D01*
X15850Y73300D02*
X16150D01*
X16000Y73150D02*
Y73450D01*
X13927Y44840D02*
X14227D01*
X14077Y44690D02*
Y44990D01*
X40623Y57758D02*
X40923D01*
X40773Y57608D02*
Y57908D01*
X43645Y61918D02*
X43945D01*
X43795Y61768D02*
Y62068D01*
X31072Y53603D02*
X31372D01*
X31222Y53453D02*
Y53753D01*
X44803Y90600D02*
X45103D01*
X44953Y90450D02*
Y90750D01*
X23933Y55949D02*
X24233D01*
X24083Y55799D02*
Y56099D01*
X25647Y55236D02*
X25947D01*
X25797Y55086D02*
Y55386D01*
X30175Y55236D02*
X30475D01*
X30325Y55086D02*
Y55386D01*
X27797Y27699D02*
X28097D01*
X27947Y27549D02*
Y27849D01*
X29450Y44400D02*
X29750D01*
X29600Y44250D02*
Y44550D01*
X31750Y45600D02*
X32050D01*
X31900Y45450D02*
Y45750D01*
X26799Y57403D02*
X27099D01*
X26949Y57253D02*
Y57553D01*
X20944Y62303D02*
X21244D01*
X21094Y62153D02*
Y62452D01*
X19465Y66780D02*
X19765D01*
X19615Y66630D02*
Y66930D01*
X32050Y43811D02*
X32350D01*
X32200Y43661D02*
Y43961D01*
X23801Y42141D02*
X24101D01*
X23951Y41991D02*
Y42291D01*
X32659Y45745D02*
X32959D01*
X32809Y45595D02*
Y45895D01*
X49728Y20518D02*
X50028D01*
X49878Y20368D02*
Y20668D01*
X54059Y45983D02*
X54359D01*
X54209Y45833D02*
Y46133D01*
X13800Y48523D02*
X14100D01*
X13950Y48373D02*
Y48673D01*
X37682Y41914D02*
X37982D01*
X37832Y41764D02*
Y42064D01*
X39354Y31697D02*
X39654D01*
X39504Y31547D02*
Y31847D01*
X45829Y45530D02*
X46129D01*
X45979Y45380D02*
Y45680D01*
X24468Y46119D02*
X24768D01*
X24618Y45969D02*
Y46269D01*
X14185Y58184D02*
X14485D01*
X14335Y58034D02*
Y58334D01*
X20350Y52400D02*
X20650D01*
X20500Y52250D02*
Y52550D01*
X27574Y81290D02*
X27874D01*
X27724Y81140D02*
Y81440D01*
X23166Y81988D02*
X23466D01*
X23316Y81838D02*
Y82137D01*
X37098Y83973D02*
X37398D01*
X37248Y83823D02*
Y84123D01*
X45550Y35900D02*
X45850D01*
X45700Y35750D02*
Y36050D01*
X36050Y35700D02*
X36350D01*
X36200Y35550D02*
Y35850D01*
X20626Y69923D02*
X20926D01*
X20776Y69772D02*
Y70073D01*
X46483Y52072D02*
X46783D01*
X46633Y51922D02*
Y52222D01*
X39708Y66760D02*
X40008D01*
X39858Y66610D02*
Y66910D01*
X44915Y40554D02*
X45215D01*
X45065Y40404D02*
Y40704D01*
X45250Y57893D02*
X45550D01*
X45400Y57743D02*
Y58042D01*
X32850Y65795D02*
X33150D01*
X33000Y65645D02*
Y65945D01*
X20023Y62112D02*
X20323D01*
X20173Y61962D02*
Y62262D01*
X30469Y35791D02*
X30769D01*
X30619Y35641D02*
Y35941D01*
X19225Y70009D02*
X19525D01*
X19375Y69859D02*
Y70159D01*
X19061Y60069D02*
X19361D01*
X19211Y59919D02*
Y60219D01*
X17134Y81988D02*
X17434D01*
X17284Y81838D02*
Y82137D01*
X26246Y52714D02*
X26546D01*
X26396Y52564D02*
Y52864D01*
X38664Y25207D02*
X38964D01*
X38814Y25057D02*
Y25357D01*
X50884Y34680D02*
X51184D01*
X51034Y34530D02*
Y34830D01*
X31453Y20837D02*
X31753D01*
X31603Y20687D02*
Y20987D01*
X32698Y63225D02*
X32998D01*
X32848Y63075D02*
Y63375D01*
X8250Y90900D02*
X8550D01*
X8400Y90750D02*
Y91050D01*
X34851Y59219D02*
X35151D01*
X35001Y59069D02*
Y59369D01*
X27643Y57032D02*
X27943D01*
X27793Y56882D02*
Y57182D01*
X34050Y62833D02*
X34350D01*
X34200Y62683D02*
Y62983D01*
X27123Y59213D02*
X27423D01*
X27273Y59063D02*
Y59363D01*
X22498Y65075D02*
X22798D01*
X22648Y64925D02*
Y65225D01*
X25357Y52968D02*
X25657D01*
X25507Y52818D02*
Y53118D01*
X29929Y53349D02*
X30229D01*
X30079Y53199D02*
Y53499D01*
X24913Y27695D02*
X25212D01*
X25062Y27545D02*
Y27845D01*
X23833Y43570D02*
X24133D01*
X23983Y43420D02*
Y43720D01*
X52305Y67527D02*
X52605D01*
X52455Y67377D02*
Y67677D01*
X41458Y53877D02*
X41758D01*
X41608Y53727D02*
Y54027D01*
X37661Y58618D02*
X37961D01*
X37811Y58468D02*
Y58768D01*
X38385Y41104D02*
X38685D01*
X38535Y40954D02*
Y41254D01*
X40415Y34741D02*
X40715D01*
X40565Y34591D02*
Y34891D01*
X52154Y39887D02*
X52454D01*
X52304Y39737D02*
Y40037D01*
X38998Y41987D02*
X39298D01*
X39148Y41837D02*
Y42137D01*
X40991Y33345D02*
X41291D01*
X41141Y33195D02*
Y33495D01*
X25400Y44534D02*
X25700D01*
X25550Y44384D02*
Y44684D01*
X25230Y51190D02*
X25530D01*
X25380Y51040D02*
Y51340D01*
X51773Y37347D02*
X52073D01*
X51923Y37197D02*
Y37497D01*
X28366Y41089D02*
X28666D01*
X28516Y40939D02*
Y41239D01*
X28679Y27687D02*
X28979D01*
X28829Y27537D02*
Y27837D01*
X30742Y40801D02*
X31042D01*
X30892Y40651D02*
Y40951D01*
X14594Y14360D02*
X14894D01*
X14744Y14210D02*
Y14510D01*
X32702Y59184D02*
X33002D01*
X32852Y59034D02*
Y59334D01*
X24214Y52968D02*
X24514D01*
X24364Y52818D02*
Y53118D01*
X52408Y41030D02*
X52708D01*
X52558Y40880D02*
Y41180D01*
X53424Y45221D02*
X53724D01*
X53574Y45071D02*
Y45371D01*
X25865Y28647D02*
X26165D01*
X26015Y28497D02*
Y28798D01*
X51265Y35950D02*
X51565D01*
X51415Y35800D02*
Y36100D01*
X35556Y53573D02*
X35856D01*
X35706Y53423D02*
Y53723D01*
X38477Y58430D02*
X38777D01*
X38627Y58280D02*
Y58580D01*
X52154Y38744D02*
X52454D01*
X52304Y38594D02*
Y38894D01*
X18126Y23147D02*
X18426D01*
X18276Y22997D02*
Y23297D01*
X31580Y102163D02*
X31880D01*
X31730Y102013D02*
Y102313D01*
X28083Y105240D02*
X28383D01*
X28233Y105090D02*
Y105390D01*
X30734Y98930D02*
X31034D01*
X30884Y98780D02*
Y99080D01*
X27290Y105278D02*
X27590D01*
X27440Y105128D02*
Y105428D01*
X28595Y98922D02*
X28895D01*
X28745Y98772D02*
Y99072D01*
X34273Y43296D02*
X34573D01*
X34423Y43146D02*
Y43446D01*
X55505Y15682D02*
X55805D01*
X55655Y15532D02*
Y15832D01*
X26187Y46135D02*
X26487D01*
X26337Y45985D02*
Y46285D01*
X46661Y32775D02*
X46961D01*
X46811Y32625D02*
Y32925D01*
X31715Y10168D02*
X32015D01*
X31865Y10018D02*
Y10318D01*
X29750Y10668D02*
X30050D01*
X29900Y10518D02*
Y10818D01*
X44823Y22115D02*
X45123D01*
X44973Y21965D02*
Y22265D01*
X44833Y31207D02*
X45133D01*
X44983Y31057D02*
Y31357D01*
X24278Y71192D02*
X24577D01*
X24427Y71043D02*
Y71342D01*
X32340Y103722D02*
X32640D01*
X32490Y103572D02*
Y103872D01*
X53043Y43570D02*
X53343D01*
X53193Y43420D02*
Y43720D01*
X32143Y28346D02*
X32443D01*
X32293Y28196D02*
Y28496D01*
X28996Y42940D02*
X29296D01*
X29146Y42790D02*
Y43090D01*
X11920Y45475D02*
X12220D01*
X12070Y45325D02*
Y45625D01*
X53506Y19598D02*
X53806D01*
X53656Y19448D02*
Y19748D01*
X37020Y43164D02*
X37320D01*
X37170Y43014D02*
Y43314D01*
X50601Y21967D02*
X50901D01*
X50751Y21817D02*
Y22117D01*
X22690Y28806D02*
X22990D01*
X22840Y28656D02*
Y28956D01*
X19345Y28069D02*
X19645D01*
X19495Y27919D02*
Y28219D01*
X35030Y32981D02*
X35330D01*
X35180Y32831D02*
Y33131D01*
X39615Y40947D02*
X39915D01*
X39765Y40797D02*
Y41097D01*
X41548Y34409D02*
X41848D01*
X41698Y34259D02*
Y34559D01*
X40068Y45034D02*
X40368D01*
X40218Y44884D02*
Y45184D01*
X37965Y34246D02*
X38265D01*
X38115Y34096D02*
Y34396D01*
X53237Y42300D02*
X53537D01*
X53387Y42150D02*
Y42450D01*
X27262Y71256D02*
X27562D01*
X27412Y71106D02*
Y71406D01*
X45719Y20582D02*
X46019D01*
X45869Y20432D02*
Y20732D01*
X45338Y31763D02*
X45638D01*
X45488Y31613D02*
Y31913D01*
X15089Y66167D02*
X15389D01*
X15239Y66017D02*
Y66317D01*
X39540Y56791D02*
X39840D01*
X39690Y56641D02*
Y56941D01*
X27055Y56383D02*
X27355D01*
X27205Y56233D02*
Y56533D01*
X32361Y85353D02*
X32661D01*
X32511Y85203D02*
Y85503D01*
X36067Y59219D02*
X36367D01*
X36217Y59069D02*
Y59369D01*
X12668Y87565D02*
X12968D01*
X12818Y87415D02*
Y87715D01*
X48538Y101355D02*
X48838D01*
X48688Y101205D02*
Y101505D01*
X38762Y108975D02*
X39062D01*
X38912Y108825D02*
Y109125D01*
X58173Y106412D02*
X58473D01*
X58323Y106262D02*
Y106562D01*
X43960Y113176D02*
X44260D01*
X44110Y113026D02*
Y113326D01*
X42060Y113176D02*
X42360D01*
X42210Y113026D02*
Y113326D01*
X24050Y2100D02*
X24350D01*
X24200Y1950D02*
Y2250D01*
X45142Y2776D02*
X45442D01*
X45292Y2626D02*
Y2926D01*
X48485Y103895D02*
X48785D01*
X48635Y103745D02*
Y104045D01*
X28757Y32812D02*
X29057D01*
X28907Y32662D02*
Y32962D01*
X26642Y108375D02*
X26942D01*
X26792Y108225D02*
Y108525D01*
X21868Y95313D02*
X22168D01*
X22018Y95163D02*
Y95463D01*
X35390Y106089D02*
X35690D01*
X35540Y105939D02*
Y106239D01*
X55350Y4156D02*
X55650D01*
X55500Y4006D02*
Y4306D01*
X31456Y32812D02*
X31756D01*
X31606Y32662D02*
Y32962D01*
X17610Y116249D02*
X17910D01*
X17760Y116099D02*
Y116399D01*
X48936Y4750D02*
X49236D01*
X49086Y4600D02*
Y4900D01*
X24648Y92640D02*
X24948D01*
X24798Y92490D02*
Y92790D01*
X24119Y32458D02*
X24419D01*
X24269Y32307D02*
Y32607D01*
X30945Y15789D02*
X31245D01*
X31095Y15639D02*
Y15939D01*
X22055Y113766D02*
X22355D01*
X22205Y113616D02*
Y113916D01*
X31580Y107416D02*
X31880D01*
X31730Y107266D02*
Y107566D01*
X31822Y96790D02*
X32122D01*
X31972Y96640D02*
Y96940D01*
X42959Y4030D02*
X43259D01*
X43109Y3880D02*
Y4180D01*
X40908Y105800D02*
X41208D01*
X41058Y105650D02*
Y105950D01*
X26230Y15815D02*
X26530D01*
X26380Y15665D02*
Y15965D01*
X21811Y28794D02*
X22111D01*
X21961Y28644D02*
Y28944D01*
X48050Y45208D02*
X48350D01*
X48200Y45058D02*
Y45358D01*
X44693Y1750D02*
X44993D01*
X44843Y1600D02*
Y1900D01*
X25734Y104065D02*
X26034D01*
X25884Y103915D02*
Y104215D01*
X42610Y31505D02*
X42910D01*
X42760Y31355D02*
Y31655D01*
X22690Y99208D02*
X22990D01*
X22840Y99058D02*
Y99358D01*
X36711Y101050D02*
X37011D01*
X36861Y100900D02*
Y101200D01*
X19884Y27105D02*
X20184D01*
X20034Y26955D02*
Y27255D01*
X34129Y32065D02*
X34429D01*
X34279Y31915D02*
Y32215D01*
X24278Y28647D02*
X24577D01*
X24427Y28497D02*
Y28798D01*
X33485Y37696D02*
X33785D01*
X33635Y37546D02*
Y37846D01*
X37803Y28584D02*
X38103D01*
X37953Y28434D02*
Y28734D01*
X24620Y22865D02*
X24920D01*
X24770Y22715D02*
Y23015D01*
X35695Y54323D02*
X35995D01*
X35845Y54173D02*
Y54473D01*
X41061Y52769D02*
X41361D01*
X41211Y52619D02*
Y52919D01*
X36004Y43902D02*
X36304D01*
X36154Y43752D02*
Y44052D01*
X36629Y35121D02*
X36929D01*
X36779Y34971D02*
Y35271D01*
X41359Y56170D02*
X41659D01*
X41509Y56020D02*
Y56320D01*
X39660Y52792D02*
X39960D01*
X39810Y52642D02*
Y52942D01*
X24341Y20583D02*
X24641D01*
X24491Y20433D02*
Y20733D01*
X39323Y33386D02*
X39623D01*
X39473Y33236D02*
Y33536D01*
X41237Y20424D02*
X41537D01*
X41387Y20274D02*
Y20574D01*
X42347Y38074D02*
X42647D01*
X42497Y37924D02*
Y38224D01*
X27608Y96587D02*
X27908D01*
X27758Y96437D02*
Y96737D01*
X24790Y98341D02*
X25090D01*
X24940Y98191D02*
Y98491D01*
X46222Y90600D02*
X46522D01*
X46372Y90450D02*
Y90750D01*
X32341Y106246D02*
X32641D01*
X32491Y106096D02*
Y106396D01*
X34287Y99747D02*
X34587D01*
X34437Y99597D02*
Y99897D01*
X10875Y105781D02*
X11175D01*
X11025Y105631D02*
Y105931D01*
X27255Y99209D02*
X27555D01*
X27405Y99059D02*
Y99359D01*
X10858Y98180D02*
X11158D01*
X11008Y98030D02*
Y98330D01*
X29192Y96080D02*
X29492D01*
X29342Y95930D02*
Y96230D01*
X11623Y95623D02*
X11923D01*
X11773Y95473D02*
Y95773D01*
X26500Y51825D02*
X26800D01*
X26650Y51675D02*
Y51975D01*
X34593Y51835D02*
X34893D01*
X34743Y51685D02*
Y51985D01*
X38882Y26425D02*
X39182D01*
X39033Y26275D02*
Y26575D01*
X50249Y32394D02*
X50549D01*
X50399Y32244D02*
Y32544D01*
X29040Y20456D02*
X29340D01*
X29190Y20306D02*
Y20606D01*
X40696Y44429D02*
X40996D01*
X40846Y44279D02*
Y44579D01*
X47296Y31378D02*
X47596D01*
X47446Y31228D02*
Y31528D01*
X48217Y30235D02*
X48517D01*
X48367Y30085D02*
Y30385D01*
X40663Y45596D02*
X40963D01*
X40813Y45446D02*
Y45746D01*
X39359Y27060D02*
X39659D01*
X39509Y26910D02*
Y27210D01*
X49741Y31632D02*
X50041D01*
X49891Y31482D02*
Y31782D01*
X27389Y20456D02*
X27689D01*
X27539Y20306D02*
Y20606D01*
X39692Y34188D02*
X39992D01*
X39842Y34038D02*
Y34338D01*
X25230Y20583D02*
X25530D01*
X25380Y20433D02*
Y20733D01*
X28208Y43489D02*
X28508D01*
X28358Y43339D02*
Y43639D01*
X33718Y28775D02*
X34018D01*
X33868Y28625D02*
Y28925D01*
X36914Y28711D02*
X37214D01*
X37064Y28561D02*
Y28861D01*
X36978Y31664D02*
X37278D01*
X37127Y31514D02*
Y31814D01*
X33644Y40713D02*
X33944D01*
X33794Y40562D02*
Y40862D01*
X25167Y23743D02*
X25467D01*
X25317Y23593D02*
Y23893D01*
X39518Y25790D02*
X39818D01*
X39667Y25640D02*
Y25940D01*
X50503Y33537D02*
X50803D01*
X50653Y33387D02*
Y33687D01*
X29929Y20837D02*
X30229D01*
X30079Y20687D02*
Y20987D01*
X32350Y7480D02*
X32650D01*
X32500Y7330D02*
Y7630D01*
X28600Y7176D02*
X28900D01*
X28750Y7026D02*
Y7326D01*
X37736Y32235D02*
X38036D01*
X37886Y32085D02*
Y32385D01*
X22615Y20837D02*
X22915D01*
X22765Y20687D02*
Y20987D01*
X38479Y88046D02*
X38779D01*
X38629Y87896D02*
Y88196D01*
X17050Y73300D02*
X17350D01*
X17200Y73150D02*
Y73450D01*
X13673Y46745D02*
X13973D01*
X13823Y46595D02*
Y46895D01*
X2850Y118000D02*
X3150D01*
X3000Y117850D02*
Y118150D01*
X1100Y114750D02*
X1400D01*
X1250Y114600D02*
Y114900D01*
X3100Y112000D02*
X3400D01*
X3250Y111850D02*
Y112150D01*
X8600Y115750D02*
X8900D01*
X8750Y115600D02*
Y115900D01*
X10600Y118250D02*
X10900D01*
X10750Y118100D02*
Y118400D01*
X16100Y110000D02*
X16400D01*
X16250Y109850D02*
Y110150D01*
X21100Y109750D02*
X21400D01*
X21250Y109600D02*
Y109900D01*
X22100Y117750D02*
X22400D01*
X22250Y117600D02*
Y117900D01*
X31850Y116500D02*
X32150D01*
X32000Y116350D02*
Y116650D01*
X33850Y116500D02*
X34150D01*
X34000Y116350D02*
Y116650D01*
X39850Y117750D02*
X40150D01*
X40000Y117600D02*
Y117900D01*
X46600Y114250D02*
X46900D01*
X46750Y114100D02*
Y114400D01*
X48850Y118250D02*
X49150D01*
X49000Y118100D02*
Y118400D01*
X46350Y110750D02*
X46650D01*
X46500Y110600D02*
Y110900D01*
X55850Y118000D02*
X56150D01*
X56000Y117850D02*
Y118150D01*
X64600Y117000D02*
X64900D01*
X64750Y116850D02*
Y117150D01*
X64600Y105250D02*
X64900D01*
X64750Y105100D02*
Y105400D01*
X46600Y104000D02*
X46900D01*
X46750Y103850D02*
Y104150D01*
X39100Y107000D02*
X39400D01*
X39250Y106850D02*
Y107150D01*
X38850Y103250D02*
X39150D01*
X39000Y103100D02*
Y103400D01*
X30850Y104750D02*
X31150D01*
X31000Y104600D02*
Y104900D01*
X26600Y102500D02*
X26900D01*
X26750Y102350D02*
Y102650D01*
X12600Y103250D02*
X12900D01*
X12750Y103100D02*
Y103400D01*
X4350Y106750D02*
X4650D01*
X4500Y106600D02*
Y106900D01*
X1100Y103000D02*
X1400D01*
X1250Y102850D02*
Y103150D01*
X12850Y99500D02*
X13150D01*
X13000Y99350D02*
Y99650D01*
X4350Y96250D02*
X4650D01*
X4500Y96100D02*
Y96400D01*
X14850Y96000D02*
X15150D01*
X15000Y95850D02*
Y96150D01*
X20100Y96000D02*
X20400D01*
X20250Y95850D02*
Y96150D01*
X58600Y95500D02*
X58900D01*
X58750Y95350D02*
Y95650D01*
X61850Y93750D02*
X62150D01*
X62000Y93600D02*
Y93900D01*
X51350Y91500D02*
X51650D01*
X51500Y91350D02*
Y91650D01*
X35100Y87750D02*
X35400D01*
X35250Y87600D02*
Y87900D01*
X33100Y87750D02*
X33400D01*
X33250Y87600D02*
Y87900D01*
X30600Y94250D02*
X30900D01*
X30750Y94100D02*
Y94400D01*
X11100Y88000D02*
X11400D01*
X11250Y87850D02*
Y88150D01*
X4350Y91500D02*
X4650D01*
X4500Y91350D02*
Y91650D01*
X1100Y94750D02*
X1400D01*
X1250Y94600D02*
Y94900D01*
X850Y84250D02*
X1150D01*
X1000Y84100D02*
Y84400D01*
X13350Y84250D02*
X13650D01*
X13500Y84100D02*
Y84400D01*
X17350Y84250D02*
X17650D01*
X17500Y84100D02*
Y84400D01*
X22850Y84250D02*
X23150D01*
X23000Y84100D02*
Y84400D01*
X33100Y82250D02*
X33400D01*
X33250Y82100D02*
Y82400D01*
X28600Y81000D02*
X28900D01*
X28750Y80850D02*
Y81150D01*
X37100Y81250D02*
X37400D01*
X37250Y81100D02*
Y81400D01*
X43600Y82250D02*
X43900D01*
X43750Y82100D02*
Y82400D01*
X46100Y85000D02*
X46400D01*
X46250Y84850D02*
Y85150D01*
X52850Y87000D02*
X53150D01*
X53000Y86850D02*
Y87150D01*
X53100Y82750D02*
X53400D01*
X53250Y82600D02*
Y82900D01*
X30100Y77500D02*
X30400D01*
X30250Y77350D02*
Y77650D01*
X28100Y72750D02*
X28400D01*
X28250Y72600D02*
Y72900D01*
X20350Y77500D02*
X20650D01*
X20500Y77350D02*
Y77650D01*
X850Y76750D02*
X1150D01*
X1000Y76600D02*
Y76900D01*
X850Y69000D02*
X1150D01*
X1000Y68850D02*
Y69150D01*
X23350Y71500D02*
X23650D01*
X23500Y71350D02*
Y71650D01*
X26600Y65500D02*
X26900D01*
X26750Y65350D02*
Y65650D01*
X31350Y68250D02*
X31650D01*
X31500Y68100D02*
Y68400D01*
X33350Y70250D02*
X33650D01*
X33500Y70100D02*
Y70400D01*
X61600Y64000D02*
X61900D01*
X61750Y63850D02*
Y64150D01*
X51350Y62000D02*
X51650D01*
X51500Y61850D02*
Y62150D01*
X49850Y58500D02*
X50150D01*
X50000Y58350D02*
Y58650D01*
X14100Y62000D02*
X14400D01*
X14250Y61850D02*
Y62150D01*
X850Y61750D02*
X1150D01*
X1000Y61600D02*
Y61900D01*
X20850Y61500D02*
X21150D01*
X21000Y61350D02*
Y61650D01*
X64850Y56500D02*
X65150D01*
X65000Y56350D02*
Y56650D01*
X64850Y51250D02*
X65150D01*
X65000Y51100D02*
Y51400D01*
X35850Y51000D02*
X36150D01*
X36000Y50850D02*
Y51150D01*
X14350Y52500D02*
X14650D01*
X14500Y52350D02*
Y52650D01*
X850Y54000D02*
X1150D01*
X1000Y53850D02*
Y54150D01*
X850Y46250D02*
X1150D01*
X1000Y46100D02*
Y46400D01*
X850Y38750D02*
X1150D01*
X1000Y38600D02*
Y38900D01*
X22100Y38750D02*
X22400D01*
X22250Y38600D02*
Y38900D01*
X50100Y43500D02*
X50400D01*
X50250Y43350D02*
Y43650D01*
X49850Y45000D02*
X50150D01*
X50000Y44850D02*
Y45150D01*
X46600Y39000D02*
X46900D01*
X46750Y38850D02*
Y39150D01*
X55100Y46750D02*
X55400D01*
X55250Y46600D02*
Y46900D01*
X64850Y44000D02*
X65150D01*
X65000Y43850D02*
Y44150D01*
X64850Y36250D02*
X65150D01*
X65000Y36100D02*
Y36400D01*
X16100Y37250D02*
X16400D01*
X16250Y37100D02*
Y37400D01*
X13350Y37250D02*
X13650D01*
X13500Y37100D02*
Y37400D01*
X15850Y35500D02*
X16150D01*
X16000Y35350D02*
Y35650D01*
X14600Y34750D02*
X14900D01*
X14750Y34600D02*
Y34900D01*
X13850Y34250D02*
X14150D01*
X14000Y34100D02*
Y34400D01*
X850Y31000D02*
X1150D01*
X1000Y30850D02*
Y31150D01*
X16100Y27250D02*
X16400D01*
X16250Y27100D02*
Y27400D01*
X26100Y27250D02*
X26400D01*
X26250Y27100D02*
Y27400D01*
X64850Y28500D02*
X65150D01*
X65000Y28350D02*
Y28650D01*
X64600Y20750D02*
X64900D01*
X64750Y20600D02*
Y20900D01*
X37100Y21750D02*
X37400D01*
X37250Y21600D02*
Y21900D01*
X14850Y22000D02*
X15150D01*
X15000Y21850D02*
Y22150D01*
X850Y23500D02*
X1150D01*
X1000Y23350D02*
Y23650D01*
X850Y15750D02*
X1150D01*
X1000Y15600D02*
Y15900D01*
X17100Y15750D02*
X17400D01*
X17250Y15600D02*
Y15900D01*
X16850Y11750D02*
X17150D01*
X17000Y11600D02*
Y11900D01*
X20100Y13250D02*
X20400D01*
X20250Y13100D02*
Y13400D01*
X19600Y9250D02*
X19900D01*
X19750Y9100D02*
Y9400D01*
X26100Y11750D02*
X26400D01*
X26250Y11600D02*
Y11900D01*
X25850Y9250D02*
X26150D01*
X26000Y9100D02*
Y9400D01*
X37850Y15750D02*
X38150D01*
X38000Y15600D02*
Y15900D01*
X40350Y11750D02*
X40650D01*
X40500Y11600D02*
Y11900D01*
X44850Y10000D02*
X45150D01*
X45000Y9850D02*
Y10150D01*
X48350Y9500D02*
X48650D01*
X48500Y9350D02*
Y9650D01*
X50350Y11750D02*
X50650D01*
X50500Y11600D02*
Y11900D01*
X50100Y15750D02*
X50400D01*
X50250Y15600D02*
Y15900D01*
X64850Y13250D02*
X65150D01*
X65000Y13100D02*
Y13400D01*
X64350Y5000D02*
X64650D01*
X64500Y4850D02*
Y5150D01*
X57600Y3250D02*
X57900D01*
X57750Y3100D02*
Y3400D01*
X49100Y3000D02*
X49400D01*
X49250Y2850D02*
Y3150D01*
X42100Y8250D02*
X42400D01*
X42250Y8100D02*
Y8400D01*
X36850Y5250D02*
X37150D01*
X37000Y5100D02*
Y5400D01*
X35350Y3000D02*
X35650D01*
X35500Y2850D02*
Y3150D01*
X27600Y5250D02*
X27900D01*
X27750Y5100D02*
Y5400D01*
X850Y8250D02*
X1150D01*
X1000Y8100D02*
Y8400D01*
X850Y1750D02*
X1150D01*
X1000Y1600D02*
Y1900D01*
X4850Y1750D02*
X5150D01*
X5000Y1600D02*
Y1900D01*
X12350Y1500D02*
X12650D01*
X12500Y1350D02*
Y1650D01*
X20350Y1500D02*
X20650D01*
X20500Y1350D02*
Y1650D01*
X57600Y1000D02*
X57900D01*
X57750Y850D02*
Y1150D01*
X64350Y1750D02*
X64650D01*
X64500Y1600D02*
Y1900D01*
X21850Y25250D02*
X22150D01*
X22000Y25100D02*
Y25400D01*
X22850Y25250D02*
X23150D01*
X23000Y25100D02*
Y25400D01*
X27350Y25250D02*
X27650D01*
X27500Y25100D02*
Y25400D01*
X55250Y78300D02*
X55550D01*
X55400Y78150D02*
Y78450D01*
X50750Y74000D02*
X51050D01*
X50900Y73850D02*
Y74150D01*
X46750Y74500D02*
X47050D01*
X46900Y74350D02*
Y74650D01*
X45598Y75077D02*
X45898D01*
X45748Y74927D02*
Y75227D01*
X54159Y78000D02*
X54459D01*
X54309Y77850D02*
Y78150D01*
X45350Y78700D02*
X45650D01*
X45500Y78550D02*
Y78850D01*
X43960Y78700D02*
X44260D01*
X44110Y78550D02*
Y78850D01*
X42615Y78600D02*
X42915D01*
X42765Y78450D02*
Y78750D01*
X53750Y74700D02*
X54050D01*
X53900Y74550D02*
Y74850D01*
X50417Y77060D02*
X50717D01*
X50567Y76910D02*
Y77210D01*
X39449Y50851D02*
X39749D01*
X39599Y50701D02*
Y51001D01*
X35181Y46253D02*
X35481D01*
X35331Y46103D02*
Y46403D01*
X42019Y45498D02*
X42319D01*
X42169Y45348D02*
Y45648D01*
X36063Y46253D02*
X36363D01*
X36213Y46103D02*
Y46403D01*
X29589Y51211D02*
X29889D01*
X29739Y51061D02*
Y51361D01*
X30289Y52476D02*
X30589D01*
X30439Y52326D02*
Y52626D01*
X23833Y44320D02*
X24133D01*
X23983Y44170D02*
Y44470D01*
X19047Y50724D02*
X19347D01*
X19197Y50574D02*
Y50874D01*
X43350Y69373D02*
X43650D01*
X43500Y69223D02*
Y69523D01*
X44675Y74375D02*
X44975D01*
X44825Y74225D02*
Y74525D01*
X44597Y75600D02*
X44897D01*
X44747Y75450D02*
Y75750D01*
X41550Y59127D02*
X41850D01*
X41700Y58977D02*
Y59277D01*
X19250Y75500D02*
X19550D01*
X19400Y75350D02*
Y75650D01*
X18250Y73300D02*
X18550D01*
X18400Y73150D02*
Y73450D01*
X39477Y73659D02*
X39777D01*
X39627Y73509D02*
Y73809D01*
X41525Y73824D02*
X41825D01*
X41675Y73674D02*
Y73974D01*
X36197Y74174D02*
X36497D01*
X36347Y74024D02*
Y74324D01*
M02*
