M48
;Layer_Color=9474304
;FILE_FORMAT=4:3
METRIC,LZ
;TYPE=PLATED
T1F00S00C0.300
T2F00S00C0.650
T3F00S00C0.700
T4F00S00C0.800
T5F00S00C0.900
T6F00S00C1.000
%
T01
X004925Y0003
X0049086Y000475
X00485Y00095
X00505Y001175
X005025Y001575
X0049878Y0020518
X0050751Y0021967
X0053656Y0019598
X0055655Y0015682
X00555Y0004156
X005775Y000325
Y0001
X00645Y000175
Y0005
X0065Y001325
X006475Y002075
X0065Y00285
X0049129Y003087
X0048367Y0030235
X0047446Y0031378
X0045869Y0020582
X0046658Y0019537
X0046232Y0007378
X0044747Y0007642
X0045Y001
X004225Y000825
X0041681Y0008633
X0041998Y0007046
X0043109Y000403
X0045292Y0002776
X0044843Y000175
X00355Y0003
X0033Y0003074
X0034288Y0006309
X00325Y000748
X0031323Y0006938
X0031357Y000875
X0031865Y0010168
X00299Y0010668
X002875Y0007176
X002775Y000525
X0026Y000925
X002625Y001175
X002638Y0015815
X0027603Y0015789
X0031095
X0032365
X0038Y001575
X0038886Y0012277
X00405Y001175
X0034919Y0010384
X0037Y000525
X00242Y00021
X00205Y00015
X00125
X0017Y001175
X001725Y001575
X0014744Y001436
X002025Y001325
X001975Y000925
X0022765Y0020837
X0024491Y0020583
X002538
X0026777Y002071
X0027539Y0020456
X002919
X0030079Y0020837
X0031603
X003725Y002175
X0038814Y0025207
X0039033Y0026425
X0039509Y002706
X0039033Y0027695
X0037953Y0028584
X0037064Y0028711
X0033868Y0028775
X0032293Y0028346
X0029692Y0027128
X0028829Y0027687
X0027947Y0027699
X002625Y002725
X0025062Y0027695
X0024427Y0028647
X0026015
X002611Y00316
X002284Y0028806
X0021961Y0028794
X0019495Y0028069
X0020034Y0027105
X0022Y002525
X0023
X0025317Y0023743
X002477Y0022865
X00275Y002525
X0018428Y0024282
X0018276Y0023147
X0015Y0022
X001625Y002725
X0039667Y002579
X0042327Y0021372
X0043045Y002053
X0041387Y0020424
X0044973Y0022115
X0044983Y0031207
X004276Y0031505
X0001Y0031
Y00235
Y001575
Y000825
Y000175
X0005
X0001Y003875
Y004625
Y0054
Y006175
Y0069
X001522Y0069923
X0016014Y0070081
X0019375Y0070009
X0019824Y0071034
X0020776Y0069923
X0022364Y007024
X0022046Y0071034
X0024427Y0071192
X0027412Y0071256
X002675Y00655
X0022648Y0065075
X0021094Y0062303
X0021Y00615
X0020173Y0062112
X0019211Y0060069
X0016998Y0060842
Y0062112
X001425Y0062
X0014335Y0058184
X00116Y0058
X00145Y00525
X0017252Y005246
X00205Y00524
X0019197Y0050724
X002538Y005119
X0025507Y0052968
X0026396Y0052714
X002665Y0051825
X0024364Y0052968
X0024083Y0055949
X0025797Y0055236
X0027205Y0056383
X0027793Y0057032
X0026949Y0057403
X0027273Y0059213
X0029158Y00574
X0030325Y0055236
X0030079Y0053349
X0030439Y0052476
X0031222Y0053603
X0029739Y0051211
X0034743Y0051835
X0036Y0051
X0035706Y0053573
X0035845Y0054323
X0036117Y0057188
X0036217Y0059219
X0037103Y0059143
X0037811Y0058618
X0038627Y005843
X003969Y0056791
X0040773Y0057758
X0042114Y0057904
X00417Y0059127
X0040652Y0059219
X004299Y0060679
X0043795Y0061918
X0045345Y0059081
X00454Y0057893
X0041509Y005617
X0041608Y0053877
X0041211Y0052769
X003981Y0052792
X0039599Y0050851
X0039424Y004552
X0040218Y0045034
X0040813Y0045596
X0040846Y0044429
X0042169Y0045498
X0041552Y0046136
X0040493Y0041898
X0039148Y0041987
X0037832Y0041914
X0038535Y0041104
X0039765Y0040947
X003717Y0043164
X0036154Y0043902
X0034423Y0043296
X0033833Y0042382
X0033794Y0040713
X0033
X0030892Y0040801
X0028516Y0041089
X0029146Y004294
X0028358Y0043489
X0028297Y0044309
X00296Y00444
X0031171Y00452
X00319Y00456
X0032809Y0045745
X00322Y0043811
X0027Y0044152
X002555Y0044534
X0025378Y0045934
X0024618Y0046119
X0023856Y0045983
X0023983Y004432
Y004357
X0023951Y0042141
X0024745Y0040713
X002225Y003875
X0020776Y003849
X0019189Y003976
X001625Y003725
X0016Y00355
X0015093Y0036331
X001475Y003475
X0014Y003425
X00135Y003725
X0014077Y0042935
Y004484
X0013823Y0046745
X001395Y0048523
X001207Y0045475
X0026337Y0046135
X0035331Y0046253
X0036213Y0046253
X00362Y00357
X0036779Y0035121
X00374Y00357
X0038115Y0034246
X0039842Y0034188
X0039473Y0033386
X0041141Y0033345
X0041698Y0034409
X0042809Y003456
X0040565Y0034741
X0039504Y0031697
X0037886Y0032235
X0037127Y0031664
X0036334
X0034279Y0032065
X003518Y0032981
X0032806Y0032812
X0031606
X0030107
X0028907
X0030619Y0035791
X0031413
X0033976Y0035454
X0033635Y0037696
X0042497Y0038074
X0045065Y0038331
Y0040554
X00457Y00359
X0045488Y0031763
X0045382Y0051952
X00456Y00689
X00449Y00694
X00435Y0069373
X0039858Y006676
X0040229Y0065653
X0039298Y00647
X0038461Y0064398
X0037327Y0062293
X00342Y0062833
X0032848Y0063225
X0033Y0065795
X0031857
X0034143Y0065922
X00335Y007025
X00315Y006825
X0032852Y0059184
X0033477Y0058719
X0034252Y0058346
X0035001Y0059219
X0032222Y0058243
X0019615Y006678
X0018395Y0066113
X0016808Y0066167
X0015239
X0014267Y0065954
X0022205Y0031664
X0024269Y0032458
X0046018
X0046811Y0032775
X00473Y00336
X0050653Y0033537
X0050399Y0032394
X0049891Y0031632
X0051034Y003468
X0051415Y003595
X0051923Y0037347
X0052304Y0038744
Y0039887
X0052558Y004103
X0053387Y00423
X0053193Y004357
X0053574Y0045221
X0054209Y0045983
X005525Y004675
X005Y0045
X005025Y00435
X00482Y0045208
X0045979Y004553
X0046633Y0052072
X0049351Y0051349
X005Y00585
X00489Y0060069
X00484Y0060701
X00478Y0061323
X0047005Y0062
X004925
X00515
X005225Y005925
X0052455Y0067527
X0051185Y0067726
X00497Y00678
Y00688
X00486
X0046811Y00689
X0046175Y00683
X005228Y00712
X006175Y0064
X0065Y00565
Y005125
Y0044
Y003625
X004675Y0039
X00476Y00719
X00469Y00745
X0045748Y0075077
X00509Y0074
X0050567Y007706
X0054309Y0078
X00554Y00783
X00539Y00747
X005325Y008275
X0050249Y008317
X00487Y00824
X00466Y00841
X004625Y0085
X0046372Y00906
X00487Y009125
X0048Y0092
X00515Y00915
X00498Y00958
X0048688Y0101355
X0048635Y0103895
X004675Y0104
X0048635Y0106435
X00465Y011075
X0058323Y0106412
X006475Y010525
X0062Y009375
X005875Y00955
X0053Y0087
X0044953Y00906
X0038629Y0088046
X003525Y008775
X003325
X0032511Y0085353
X003325Y008225
X00296Y008294
X0029255Y0083962
X002875Y0081
X0027724Y008129
X0023316Y0081988
X0023Y008425
X00175
X0017284Y0081988
X00185Y00819
X00205Y00775
X00194Y00755
X00184Y00733
X00172
X0016
X00148
X0023602Y0073542
X00235Y00715
X002825Y007275
X0028079Y0074368
X003025Y00775
X00325Y0075582
X0036347Y0074174
X0039627Y0073659
X0041675Y0073824
X0044825Y0074375
X0044747Y00756
X004411Y00787
X00455
X0042765Y00786
X00409Y00799
X00404Y00805
X0039422Y0081961
X0038719Y008398
X0037248Y0083973
X003725Y008125
X004375Y008225
X0038115Y0096755
X0036341Y0099763
X0036861Y010105
X0036391Y010393
X003554Y0106089
X0032491Y0106246
X003173Y0107416
X003046
X0031Y010475
X003249Y0103722
X003173Y0102163
X003046Y010224
X0030884Y009893
X0028745Y0098922
X0027405Y0099209
X0027758Y0096587
X002603Y0096347
X002494Y0098341
X002284Y0099208
Y0102191
X002675Y01025
X0025884Y0104065
X002744Y0105278
X0028233Y010524
X0026937Y0107191
X0026792Y0108375
X0026015Y01104
X002411Y0110534
X002284
X002125Y010975
X001625Y011
X00128Y01102
X0011025Y0105781
X001275Y010325
X0013Y00995
X0011186Y01007
X0011008Y009818
X0011773Y0095623
X0015Y0096
X002025
X0022018Y0095313
X00233Y0095331
X0024798Y009264
X0026009Y0092416
X00277Y00903
X0032001Y0092823
X003075Y009425
X0029342Y009608
X0031972Y009679
X0034437Y0099747
X0039Y010325
X003925Y0107
X0038912Y0108975
X0041351Y010961
X0042201Y0108305
X0041058Y01058
X0028879Y0109575
X001725Y0103136
X0012818Y0087565
X001125Y0088
X00084Y00909
X00135Y008425
X0001
Y007675
X00045Y00915
Y009625
X000125Y009475
Y0103
X00045Y010675
X000325Y0112
X000125Y011475
X0003Y0118
X000875Y011575
X001075Y011825
X0012876Y0113825
X001776Y0116249
X00203Y0113516
X0022205Y0113766
X002225Y011775
X00267Y01128
X0031397Y0114176
X0032Y01165
X0034
X004Y011775
X004175Y0117
X00449Y01179
X0044969Y011596
X004411Y0113176
X004316
X004221
X0039985Y0114594
X004675Y011425
X0049Y011825
X0056Y0118
X006475Y0117
T02
X0030775Y0005075
X0035225
T03
X0032429Y0071505
X0037509
X0019035Y0100711
Y0105791
T04
X0028825Y000205
X0037175
T05
X000633Y009564
Y009818
Y010072
Y010326
Y01058
Y010834
T06
X005713Y000674
Y000928
Y001182
Y001436
Y00169
Y001944
Y002198
Y002452
Y002706
Y00296
X005967
Y002706
Y002452
Y002198
Y001944
Y00169
Y001436
Y001182
Y000928
Y000674
X000887
Y000928
Y001182
Y001436
Y00169
Y001944
Y002198
Y002452
Y002706
Y00296
X000633
Y002706
Y002452
Y002198
Y001944
Y00169
Y001436
Y001182
Y000928
Y000674
Y003214
Y003468
Y003722
Y003976
Y00423
Y004484
Y004738
Y004992
Y005246
Y0055
Y005754
Y006008
Y006262
Y006516
Y00677
Y007024
X000887
Y00677
Y006516
Y006262
Y006008
Y005754
Y0055
Y005246
Y004992
Y004738
Y004484
Y00423
Y003976
Y003722
Y003468
Y003214
X005713
Y003468
Y003722
Y003976
Y00423
Y004484
Y004738
Y004992
Y005246
Y0055
Y005754
Y006008
Y006262
Y006516
Y00677
Y007024
X005967
Y00677
Y006516
Y006262
Y006008
Y005754
Y0055
Y005246
Y004992
Y004738
Y004484
Y00423
Y003976
Y003722
Y003468
Y003214
Y007278
Y007532
Y007786
Y00804
Y008294
Y008548
X005713
Y008294
Y00804
Y007786
Y007532
Y007278
X004189Y00931
Y009564
Y009818
Y010072
X001903Y00931
X001649
X000633Y009183
Y008929
Y008548
X000887
Y008294
X000633
Y00804
X000887
Y007786
X000633
Y007532
X000887
Y007278
X000633
Y011342
Y011596
X005967
Y011342
M30
