G04 Layer_Color=8421504*
%FSLAX43Y43*%
%MOMM*%
G71*
G01*
G75*
%ADD10C,0.400*%
%ADD11C,0.127*%
%ADD12R,0.450X0.850*%
%ADD13R,0.850X0.450*%
%ADD14R,0.762X0.940*%
%ADD15R,6.200X1.200*%
%ADD16R,2.000X3.500*%
%ADD17R,0.508X2.300*%
%ADD18R,0.940X0.762*%
%ADD19R,1.200X1.100*%
%ADD20R,0.600X0.450*%
%ADD21R,1.100X1.200*%
%ADD22R,1.100X1.500*%
%ADD23R,1.016X0.813*%
%ADD24R,0.406X0.762*%
%ADD25R,2.160X1.520*%
%ADD26R,3.400X1.200*%
%ADD27R,1.524X1.270*%
%ADD28R,2.100X1.400*%
%ADD29R,1.000X0.200*%
%ADD30R,0.200X1.000*%
%ADD31R,0.400X2.200*%
%ADD32R,1.500X1.500*%
%ADD33R,0.300X0.800*%
%ADD34R,0.800X0.300*%
G36*
X31258Y82873D02*
X30750Y83381D01*
X30242Y82873D01*
Y83635D01*
X31258D01*
Y82873D01*
D02*
G37*
G36*
Y82619D02*
Y82365D01*
X30242D01*
Y82619D01*
X30750Y83127D01*
X31258Y82619D01*
D02*
G37*
G36*
X36258Y85623D02*
X35750Y86131D01*
X35242Y85623D01*
Y86385D01*
X36258D01*
Y85623D01*
D02*
G37*
G36*
Y85369D02*
Y85115D01*
X35242D01*
Y85369D01*
X35750Y85877D01*
X36258Y85369D01*
D02*
G37*
D10*
X-20000Y-69500D02*
Y-67051D01*
X-18775D01*
X-18367Y-67459D01*
Y-68275D01*
X-18775Y-68684D01*
X-20000D01*
X-17551Y-69500D02*
Y-67867D01*
X-16734Y-67051D01*
X-15918Y-67867D01*
Y-69500D01*
Y-68275D01*
X-17551D01*
X-13469Y-67459D02*
X-13877Y-67051D01*
X-14693D01*
X-15102Y-67459D01*
Y-67867D01*
X-14693Y-68275D01*
X-13877D01*
X-13469Y-68684D01*
Y-69092D01*
X-13877Y-69500D01*
X-14693D01*
X-15102Y-69092D01*
X-12652Y-67051D02*
X-11020D01*
X-11836D01*
Y-69500D01*
X-8570Y-67051D02*
X-10203D01*
Y-69500D01*
X-8570D01*
X-10203Y-68275D02*
X-9387D01*
X-5305Y-69500D02*
Y-67051D01*
X-4488Y-67867D01*
X-3672Y-67051D01*
Y-69500D01*
X-2856D02*
Y-67867D01*
X-2039Y-67051D01*
X-1223Y-67867D01*
Y-69500D01*
Y-68275D01*
X-2856D01*
X1226Y-67459D02*
X818Y-67051D01*
X2D01*
X-406Y-67459D01*
Y-67867D01*
X2Y-68275D01*
X818D01*
X1226Y-68684D01*
Y-69092D01*
X818Y-69500D01*
X2D01*
X-406Y-69092D01*
X2043Y-67051D02*
Y-69500D01*
Y-68684D01*
X3676Y-67051D01*
X2451Y-68275D01*
X3676Y-69500D01*
X6941Y-67051D02*
X8574D01*
X7758D01*
Y-69500D01*
X10615Y-67051D02*
X9799D01*
X9390Y-67459D01*
Y-69092D01*
X9799Y-69500D01*
X10615D01*
X11023Y-69092D01*
Y-67459D01*
X10615Y-67051D01*
X11840Y-69500D02*
Y-67051D01*
X13064D01*
X13473Y-67459D01*
Y-68275D01*
X13064Y-68684D01*
X11840D01*
X16738Y-67051D02*
Y-69500D01*
X18371D01*
X19187D02*
Y-67867D01*
X20004Y-67051D01*
X20820Y-67867D01*
Y-69500D01*
Y-68275D01*
X19187D01*
X21637Y-67051D02*
Y-67459D01*
X22453Y-68275D01*
X23269Y-67459D01*
Y-67051D01*
X22453Y-68275D02*
Y-69500D01*
X25719Y-67051D02*
X24086D01*
Y-69500D01*
X25719D01*
X24086Y-68275D02*
X24902D01*
X26535Y-69500D02*
Y-67051D01*
X27760D01*
X28168Y-67459D01*
Y-68275D01*
X27760Y-68684D01*
X26535D01*
X27351D02*
X28168Y-69500D01*
D11*
X0Y0D02*
Y119300D01*
X66000D01*
Y0D02*
Y119300D01*
X0Y0D02*
X66000D01*
D12*
X50440Y72700D02*
D03*
X51090D02*
D03*
X51740D02*
D03*
X52390D02*
D03*
Y69100D02*
D03*
X51740D02*
D03*
X51090D02*
D03*
X50440D02*
D03*
D13*
X53215Y71875D02*
D03*
Y71225D02*
D03*
Y70575D02*
D03*
Y69925D02*
D03*
X49615D02*
D03*
Y70575D02*
D03*
Y71225D02*
D03*
Y71875D02*
D03*
D14*
X27750Y86350D02*
D03*
Y85150D02*
D03*
X22205Y114725D02*
D03*
Y115925D02*
D03*
X37250Y85150D02*
D03*
Y86350D02*
D03*
X43160Y108305D02*
D03*
Y107105D02*
D03*
X30750Y86350D02*
D03*
Y85150D02*
D03*
X33000Y108375D02*
D03*
Y109575D02*
D03*
X24750Y93900D02*
D03*
Y95100D02*
D03*
X17760Y115290D02*
D03*
Y114090D02*
D03*
X22000Y97600D02*
D03*
Y96400D02*
D03*
X35540Y103930D02*
D03*
Y105130D02*
D03*
X26015Y109575D02*
D03*
Y108375D02*
D03*
X31730D02*
D03*
Y109575D02*
D03*
X38750Y85150D02*
D03*
Y86350D02*
D03*
X23250Y97600D02*
D03*
Y96400D02*
D03*
X10140Y116560D02*
D03*
Y115360D02*
D03*
X12045Y116560D02*
D03*
Y115360D02*
D03*
X19406Y72425D02*
D03*
Y73625D02*
D03*
X27750Y82400D02*
D03*
Y83600D02*
D03*
X22840Y108375D02*
D03*
Y109575D02*
D03*
Y101320D02*
D03*
Y100120D02*
D03*
X30460Y108375D02*
D03*
Y109575D02*
D03*
X26000Y93900D02*
D03*
Y95100D02*
D03*
X24110Y108375D02*
D03*
Y109575D02*
D03*
X32000Y93900D02*
D03*
Y95100D02*
D03*
X34270Y108375D02*
D03*
Y109575D02*
D03*
X29250Y86350D02*
D03*
Y85150D02*
D03*
X27920Y108375D02*
D03*
Y109575D02*
D03*
X35250Y100350D02*
D03*
Y99150D02*
D03*
X36500Y77100D02*
D03*
Y75900D02*
D03*
X37847Y77100D02*
D03*
Y75900D02*
D03*
X39250Y77100D02*
D03*
Y75900D02*
D03*
X40600Y77100D02*
D03*
Y75900D02*
D03*
X41965Y75900D02*
D03*
Y77100D02*
D03*
X43310Y77093D02*
D03*
Y75893D02*
D03*
D15*
X33000Y118675D02*
D03*
D16*
X37847Y117525D02*
D03*
Y112525D02*
D03*
X28147Y117525D02*
D03*
Y112525D02*
D03*
D17*
X31397Y112575D02*
D03*
X32197D02*
D03*
X32997D02*
D03*
X33797D02*
D03*
X34597D02*
D03*
D18*
X10105Y98180D02*
D03*
X8905D02*
D03*
X14550Y108340D02*
D03*
X13350D02*
D03*
X10105Y100720D02*
D03*
X8905D02*
D03*
X10105Y95640D02*
D03*
X8905D02*
D03*
X10740Y110245D02*
D03*
X9540D02*
D03*
X43760Y117865D02*
D03*
X42560D02*
D03*
X10105Y105800D02*
D03*
X8905D02*
D03*
X52900Y74700D02*
D03*
X51700D02*
D03*
D19*
X12750Y78150D02*
D03*
Y79850D02*
D03*
Y76600D02*
D03*
Y74900D02*
D03*
X20300Y116175D02*
D03*
Y114475D02*
D03*
X16000Y78150D02*
D03*
Y79850D02*
D03*
X39985Y113635D02*
D03*
Y111935D02*
D03*
X16000Y76600D02*
D03*
Y74900D02*
D03*
D20*
X8997Y108340D02*
D03*
X11283D02*
D03*
X44303Y105800D02*
D03*
X42017D02*
D03*
X35667Y108975D02*
D03*
X37953D02*
D03*
D21*
X44010Y115960D02*
D03*
X42310D02*
D03*
X51650Y78200D02*
D03*
X53350D02*
D03*
X53300Y76300D02*
D03*
X51600D02*
D03*
X44010Y109610D02*
D03*
X42310D02*
D03*
D22*
X13835Y113825D02*
D03*
Y116825D02*
D03*
X15335D02*
D03*
Y113825D02*
D03*
D23*
X35750Y84861D02*
D03*
Y86576D02*
D03*
X30750Y82111D02*
D03*
Y83826D02*
D03*
D24*
X44110Y114135D02*
D03*
X43160D02*
D03*
X42210D02*
D03*
Y111435D02*
D03*
X44110D02*
D03*
D25*
X50250Y86460D02*
D03*
Y81960D02*
D03*
X41150D02*
D03*
Y86460D02*
D03*
X24850Y81960D02*
D03*
Y86460D02*
D03*
X15750D02*
D03*
Y81960D02*
D03*
D26*
X60860Y106435D02*
D03*
X50860D02*
D03*
X60860Y103895D02*
D03*
X50860Y103895D02*
D03*
X60860Y101355D02*
D03*
X50860D02*
D03*
X60860Y98815D02*
D03*
X50860D02*
D03*
D27*
X21400Y72403D02*
D03*
Y75197D02*
D03*
D28*
X24415Y70030D02*
D03*
Y75530D02*
D03*
X27615D02*
D03*
Y70030D02*
D03*
D29*
X24940Y104740D02*
D03*
Y104240D02*
D03*
Y103740D02*
D03*
Y103240D02*
D03*
Y102740D02*
D03*
Y102240D02*
D03*
Y101740D02*
D03*
Y101240D02*
D03*
Y100740D02*
D03*
Y100240D02*
D03*
Y99740D02*
D03*
Y99240D02*
D03*
X33440D02*
D03*
Y99740D02*
D03*
Y100240D02*
D03*
Y100740D02*
D03*
Y101240D02*
D03*
Y101740D02*
D03*
Y102240D02*
D03*
Y102740D02*
D03*
Y103240D02*
D03*
Y103740D02*
D03*
Y104240D02*
D03*
Y104740D02*
D03*
D30*
X26440Y97740D02*
D03*
X26940D02*
D03*
X27440D02*
D03*
X27940D02*
D03*
X28440D02*
D03*
X28940D02*
D03*
X29440D02*
D03*
X29940D02*
D03*
X30440D02*
D03*
X30940D02*
D03*
X31440D02*
D03*
X31940D02*
D03*
Y106240D02*
D03*
X31440D02*
D03*
X30940D02*
D03*
X30440D02*
D03*
X29940D02*
D03*
X29440D02*
D03*
X28940D02*
D03*
X28440D02*
D03*
X27940D02*
D03*
X27440D02*
D03*
X26940D02*
D03*
X26440D02*
D03*
D31*
X16439Y49256D02*
D03*
X17139D02*
D03*
X17839D02*
D03*
X18539D02*
D03*
X19239D02*
D03*
X19939D02*
D03*
X20639D02*
D03*
X21339D02*
D03*
X22034Y49261D02*
D03*
X22739Y49256D02*
D03*
X23439D02*
D03*
X24139D02*
D03*
X24839D02*
D03*
X25539D02*
D03*
X26239D02*
D03*
X26939D02*
D03*
X27639D02*
D03*
X28339D02*
D03*
X29039D02*
D03*
X29739D02*
D03*
X30439D02*
D03*
X31139D02*
D03*
X31839D02*
D03*
X32539D02*
D03*
X33239D02*
D03*
X49339D02*
D03*
X48639D02*
D03*
X47939D02*
D03*
X47239D02*
D03*
X46539D02*
D03*
X45839D02*
D03*
X45139D02*
D03*
X44439D02*
D03*
X43739D02*
D03*
X43039D02*
D03*
X42339D02*
D03*
X41639D02*
D03*
X40939D02*
D03*
X40239D02*
D03*
X39539D02*
D03*
X38839D02*
D03*
X38139D02*
D03*
X37439D02*
D03*
X36739D02*
D03*
X36039D02*
D03*
X35339D02*
D03*
X34639D02*
D03*
X33939D02*
D03*
D32*
X43600Y72100D02*
D03*
D33*
X44350Y70600D02*
D03*
X43850D02*
D03*
X43350D02*
D03*
X42850D02*
D03*
Y73600D02*
D03*
X43350D02*
D03*
X43850D02*
D03*
X44350D02*
D03*
D34*
X42100Y71350D02*
D03*
Y71850D02*
D03*
Y72350D02*
D03*
Y72850D02*
D03*
X45100D02*
D03*
Y72350D02*
D03*
Y71850D02*
D03*
Y71350D02*
D03*
M02*
