G04 Layer_Color=128*
%FSLAX43Y43*%
%MOMM*%
G71*
G01*
G75*
%ADD10C,0.400*%
%ADD11C,0.127*%
%ADD14R,0.762X0.940*%
%ADD18R,0.940X0.762*%
%ADD19R,1.200X1.100*%
%ADD23R,1.016X0.813*%
%ADD27R,1.524X1.270*%
%ADD35R,0.250X0.950*%
%ADD36R,2.200X1.400*%
%ADD37R,0.640X0.890*%
%ADD38R,0.550X1.450*%
%ADD39C,0.320*%
%ADD40R,0.914X1.270*%
%ADD41R,0.914X0.914*%
%ADD42R,0.813X1.016*%
%ADD43R,0.330X2.000*%
%ADD44R,2.000X0.330*%
%ADD45C,1.524*%
%ADD46R,0.889X1.016*%
%ADD47R,1.270X1.524*%
%ADD48R,0.600X1.850*%
%ADD49R,2.800X2.000*%
%ADD50R,0.400X1.350*%
G36*
X34708Y67665D02*
X33692D01*
Y68427D01*
X34200Y67919D01*
X34708Y68427D01*
Y67665D01*
D02*
G37*
G36*
X36108D02*
X35092D01*
Y68427D01*
X35600Y67919D01*
X36108Y68427D01*
Y67665D01*
D02*
G37*
G36*
X37708D02*
X36692D01*
Y68427D01*
X37200Y67919D01*
X37708Y68427D01*
Y67665D01*
D02*
G37*
G36*
X13315Y56905D02*
Y56397D01*
X12553D01*
X13061Y56905D01*
X12553Y57413D01*
X13315D01*
Y56905D01*
D02*
G37*
G36*
X25908Y67465D02*
X24892D01*
Y68227D01*
X25400Y67719D01*
X25908Y68227D01*
Y67465D01*
D02*
G37*
G36*
X27308D02*
X26292D01*
Y68227D01*
X26800Y67719D01*
X27308Y68227D01*
Y67465D01*
D02*
G37*
G36*
X36108Y68681D02*
X35600Y68173D01*
X35092Y68681D01*
Y68935D01*
X36108D01*
Y68681D01*
D02*
G37*
G36*
X37708D02*
X37200Y68173D01*
X36692Y68681D01*
Y68935D01*
X37708D01*
Y68681D01*
D02*
G37*
G36*
X10369Y91750D02*
X10877Y91242D01*
X10115D01*
Y91750D01*
Y92258D01*
X10877D01*
X10369Y91750D01*
D02*
G37*
G36*
X25908Y68481D02*
X25400Y67973D01*
X24892Y68481D01*
Y68735D01*
X25908D01*
Y68481D01*
D02*
G37*
G36*
X27308D02*
X26800Y67973D01*
X26292Y68481D01*
Y68735D01*
X27308D01*
Y68481D01*
D02*
G37*
G36*
X34708Y68681D02*
X34200Y68173D01*
X33692Y68681D01*
Y68935D01*
X34708D01*
Y68681D01*
D02*
G37*
G36*
X12807Y56905D02*
X12299Y56397D01*
X12045D01*
Y57413D01*
X12299D01*
X12807Y56905D01*
D02*
G37*
G36*
X48635Y22000D02*
Y21492D01*
X47873D01*
X48381Y22000D01*
X47873Y22508D01*
X48635D01*
Y22000D01*
D02*
G37*
G36*
X15369Y42670D02*
X15877Y42162D01*
X15115D01*
Y42670D01*
Y43178D01*
X15877D01*
X15369Y42670D01*
D02*
G37*
G36*
X16385Y42162D02*
X16131D01*
X15623Y42670D01*
X16131Y43178D01*
X16385D01*
Y42162D01*
D02*
G37*
G36*
X47619Y20500D02*
X48127Y19992D01*
X47365D01*
Y20500D01*
Y21008D01*
X48127D01*
X47619Y20500D01*
D02*
G37*
G36*
X48635Y19992D02*
X48381D01*
X47873Y20500D01*
X48381Y21008D01*
X48635D01*
Y19992D01*
D02*
G37*
G36*
X48127Y22000D02*
X47619Y21492D01*
X47365D01*
Y22508D01*
X47619D01*
X48127Y22000D01*
D02*
G37*
G36*
X16490Y46237D02*
X16236D01*
X15728Y46745D01*
X16236Y47253D01*
X16490D01*
Y46237D01*
D02*
G37*
G36*
X15474Y48650D02*
X15982Y48142D01*
X15220D01*
Y48650D01*
Y49158D01*
X15982D01*
X15474Y48650D01*
D02*
G37*
G36*
X16490Y48142D02*
X16236D01*
X15728Y48650D01*
X16236Y49158D01*
X16490D01*
Y48142D01*
D02*
G37*
G36*
X15474Y44840D02*
X15982Y44332D01*
X15220D01*
Y44840D01*
Y45348D01*
X15982D01*
X15474Y44840D01*
D02*
G37*
G36*
X16490Y44332D02*
X16236D01*
X15728Y44840D01*
X16236Y45348D01*
X16490D01*
Y44332D01*
D02*
G37*
G36*
X15474Y46745D02*
X15982Y46237D01*
X15220D01*
Y46745D01*
Y47253D01*
X15982D01*
X15474Y46745D01*
D02*
G37*
G36*
X45700Y95132D02*
X45446D01*
X44938Y95640D01*
X45446Y96148D01*
X45700D01*
Y95132D01*
D02*
G37*
G36*
X38334Y98180D02*
X38842Y97672D01*
X38080D01*
Y98180D01*
Y98688D01*
X38842D01*
X38334Y98180D01*
D02*
G37*
G36*
X39350Y97672D02*
X39096D01*
X38588Y98180D01*
X39096Y98688D01*
X39350D01*
Y97672D01*
D02*
G37*
G36*
X38334Y95640D02*
X38842Y95132D01*
X38080D01*
Y95640D01*
Y96148D01*
X38842D01*
X38334Y95640D01*
D02*
G37*
G36*
X39350Y95132D02*
X39096D01*
X38588Y95640D01*
X39096Y96148D01*
X39350D01*
Y95132D01*
D02*
G37*
G36*
X44684Y95640D02*
X45192Y95132D01*
X44430D01*
Y95640D01*
Y96148D01*
X45192D01*
X44684Y95640D01*
D02*
G37*
G36*
X39350Y100212D02*
X39096D01*
X38588Y100720D01*
X39096Y101228D01*
X39350D01*
Y100212D01*
D02*
G37*
G36*
X44684Y100720D02*
X45192Y100212D01*
X44430D01*
Y100720D01*
Y101228D01*
X45192D01*
X44684Y100720D01*
D02*
G37*
G36*
X45700Y100212D02*
X45446D01*
X44938Y100720D01*
X45446Y101228D01*
X45700D01*
Y100212D01*
D02*
G37*
G36*
X44684Y98180D02*
X45192Y97672D01*
X44430D01*
Y98180D01*
Y98688D01*
X45192D01*
X44684Y98180D01*
D02*
G37*
G36*
X45700Y97672D02*
X45446D01*
X44938Y98180D01*
X45446Y98688D01*
X45700D01*
Y97672D01*
D02*
G37*
G36*
X38334Y100720D02*
X38842Y100212D01*
X38080D01*
Y100720D01*
Y101228D01*
X38842D01*
X38334Y100720D01*
D02*
G37*
G36*
X29758Y94631D02*
X29250Y94123D01*
X28742Y94631D01*
Y94885D01*
X29758D01*
Y94631D01*
D02*
G37*
G36*
X44684Y93100D02*
X45192Y92592D01*
X44430D01*
Y93100D01*
Y93608D01*
X45192D01*
X44684Y93100D01*
D02*
G37*
G36*
X45700Y92592D02*
X45446D01*
X44938Y93100D01*
X45446Y93608D01*
X45700D01*
Y92592D01*
D02*
G37*
G36*
X10877Y94000D02*
X10369Y93492D01*
X10115D01*
Y94508D01*
X10369D01*
X10877Y94000D01*
D02*
G37*
G36*
X11385Y91242D02*
X11131D01*
X10623Y91750D01*
X11131Y92258D01*
X11385D01*
Y91242D01*
D02*
G37*
G36*
X38334Y93100D02*
X38842Y92592D01*
X38080D01*
Y93100D01*
Y93608D01*
X38842D01*
X38334Y93100D01*
D02*
G37*
G36*
X39350Y92592D02*
X39096D01*
X38588Y93100D01*
X39096Y93608D01*
X39350D01*
Y92592D01*
D02*
G37*
G36*
X29758Y93615D02*
X28742D01*
Y94377D01*
X29250Y93869D01*
X29758Y94377D01*
Y93615D01*
D02*
G37*
G36*
X26508Y94123D02*
X26000Y94631D01*
X25492Y94123D01*
Y94885D01*
X26508D01*
Y94123D01*
D02*
G37*
G36*
X28258D02*
X27750Y94631D01*
X27242Y94123D01*
Y94885D01*
X28258D01*
Y94123D01*
D02*
G37*
G36*
X11385Y94000D02*
Y93492D01*
X10623D01*
X11131Y94000D01*
X10623Y94508D01*
X11385D01*
Y94000D01*
D02*
G37*
G36*
X26508Y93869D02*
Y93615D01*
X25492D01*
Y93869D01*
X26000Y94377D01*
X26508Y93869D01*
D02*
G37*
G36*
X28258D02*
Y93615D01*
X27242D01*
Y93869D01*
X27750Y94377D01*
X28258Y93869D01*
D02*
G37*
D10*
X-20000Y-69500D02*
Y-67051D01*
X-18775D01*
X-18367Y-67459D01*
Y-68275D01*
X-18775Y-68684D01*
X-20000D01*
X-17551Y-69500D02*
Y-67867D01*
X-16734Y-67051D01*
X-15918Y-67867D01*
Y-69500D01*
Y-68275D01*
X-17551D01*
X-13469Y-67459D02*
X-13877Y-67051D01*
X-14693D01*
X-15102Y-67459D01*
Y-67867D01*
X-14693Y-68275D01*
X-13877D01*
X-13469Y-68684D01*
Y-69092D01*
X-13877Y-69500D01*
X-14693D01*
X-15102Y-69092D01*
X-12652Y-67051D02*
X-11020D01*
X-11836D01*
Y-69500D01*
X-8570Y-67051D02*
X-10203D01*
Y-69500D01*
X-8570D01*
X-10203Y-68275D02*
X-9387D01*
X-5305Y-69500D02*
Y-67051D01*
X-4488Y-67867D01*
X-3672Y-67051D01*
Y-69500D01*
X-2856D02*
Y-67867D01*
X-2039Y-67051D01*
X-1223Y-67867D01*
Y-69500D01*
Y-68275D01*
X-2856D01*
X1226Y-67459D02*
X818Y-67051D01*
X2D01*
X-406Y-67459D01*
Y-67867D01*
X2Y-68275D01*
X818D01*
X1226Y-68684D01*
Y-69092D01*
X818Y-69500D01*
X2D01*
X-406Y-69092D01*
X2043Y-67051D02*
Y-69500D01*
Y-68684D01*
X3676Y-67051D01*
X2451Y-68275D01*
X3676Y-69500D01*
X6941Y-67051D02*
Y-69500D01*
X8166D01*
X8574Y-69092D01*
Y-68684D01*
X8166Y-68275D01*
X6941D01*
X8166D01*
X8574Y-67867D01*
Y-67459D01*
X8166Y-67051D01*
X6941D01*
X10615D02*
X9799D01*
X9390Y-67459D01*
Y-69092D01*
X9799Y-69500D01*
X10615D01*
X11023Y-69092D01*
Y-67459D01*
X10615Y-67051D01*
X11840D02*
X13473D01*
X12656D01*
Y-69500D01*
X14289Y-67051D02*
X15922D01*
X15105D01*
Y-69500D01*
X17963Y-67051D02*
X17146D01*
X16738Y-67459D01*
Y-69092D01*
X17146Y-69500D01*
X17963D01*
X18371Y-69092D01*
Y-67459D01*
X17963Y-67051D01*
X19187Y-69500D02*
Y-67051D01*
X20004Y-67867D01*
X20820Y-67051D01*
Y-69500D01*
X24086Y-67051D02*
Y-69500D01*
X25719D01*
X26535D02*
Y-67867D01*
X27351Y-67051D01*
X28168Y-67867D01*
Y-69500D01*
Y-68275D01*
X26535D01*
X28984Y-67051D02*
Y-67459D01*
X29801Y-68275D01*
X30617Y-67459D01*
Y-67051D01*
X29801Y-68275D02*
Y-69500D01*
X33066Y-67051D02*
X31433D01*
Y-69500D01*
X33066D01*
X31433Y-68275D02*
X32250D01*
X33883Y-69500D02*
Y-67051D01*
X35107D01*
X35515Y-67459D01*
Y-68275D01*
X35107Y-68684D01*
X33883D01*
X34699D02*
X35515Y-69500D01*
D11*
X0Y0D02*
Y119300D01*
X66000D01*
Y0D02*
Y119300D01*
X0Y0D02*
X66000D01*
D14*
X37200Y64900D02*
D03*
Y63700D02*
D03*
X35400Y64900D02*
D03*
Y63700D02*
D03*
X29349Y35033D02*
D03*
Y36232D02*
D03*
X16000Y72300D02*
D03*
Y71100D02*
D03*
X17200Y72300D02*
D03*
Y71100D02*
D03*
X42760Y77700D02*
D03*
Y76500D02*
D03*
X27400Y72300D02*
D03*
Y73500D02*
D03*
X30500Y101350D02*
D03*
Y100150D02*
D03*
X14800Y72300D02*
D03*
Y71100D02*
D03*
X42842Y33693D02*
D03*
Y32493D02*
D03*
X17200Y75500D02*
D03*
Y74300D02*
D03*
X17250Y105850D02*
D03*
Y104650D02*
D03*
X44110Y77700D02*
D03*
Y76500D02*
D03*
X17250Y100650D02*
D03*
Y101850D02*
D03*
X46600Y34600D02*
D03*
Y35800D02*
D03*
X46176Y59092D02*
D03*
Y57893D02*
D03*
X19983Y38525D02*
D03*
Y39725D02*
D03*
X18400Y72300D02*
D03*
Y71100D02*
D03*
X14800Y75500D02*
D03*
Y74300D02*
D03*
X31730Y100120D02*
D03*
Y101320D02*
D03*
X37500Y73150D02*
D03*
Y74350D02*
D03*
X28750Y8150D02*
D03*
Y9350D02*
D03*
X24400Y72300D02*
D03*
Y73500D02*
D03*
X34200Y64900D02*
D03*
Y63700D02*
D03*
X18400Y75500D02*
D03*
Y74300D02*
D03*
X48797Y71200D02*
D03*
Y72400D02*
D03*
X19600Y68900D02*
D03*
Y67700D02*
D03*
X29960Y8150D02*
D03*
Y9350D02*
D03*
X27920Y68935D02*
D03*
Y67735D02*
D03*
X16000Y75500D02*
D03*
Y74300D02*
D03*
X32500Y73150D02*
D03*
Y74350D02*
D03*
X47287Y57893D02*
D03*
Y59092D02*
D03*
X20800Y68900D02*
D03*
Y67700D02*
D03*
X24000Y68900D02*
D03*
Y67700D02*
D03*
X45500Y77700D02*
D03*
Y76500D02*
D03*
X40800Y63700D02*
D03*
Y64900D02*
D03*
D18*
X31800Y64900D02*
D03*
X33000D02*
D03*
X32797Y32000D02*
D03*
X31597D02*
D03*
X35075Y9385D02*
D03*
X36275D02*
D03*
X47800Y51300D02*
D03*
X46600D02*
D03*
X30100Y32000D02*
D03*
X28900D02*
D03*
X37410Y36585D02*
D03*
X36210D02*
D03*
X32330Y16741D02*
D03*
X31130D02*
D03*
X18906Y46904D02*
D03*
X20106D02*
D03*
X50150Y4750D02*
D03*
X51350D02*
D03*
X40693Y8633D02*
D03*
X39493D02*
D03*
X18200Y52500D02*
D03*
X19400D02*
D03*
X42150Y65250D02*
D03*
X43350D02*
D03*
X48205Y46110D02*
D03*
X47005D02*
D03*
X27600Y16700D02*
D03*
X26400D02*
D03*
X16455Y58175D02*
D03*
X15255D02*
D03*
X42150Y64000D02*
D03*
X43350D02*
D03*
X45900Y1750D02*
D03*
X47100D02*
D03*
X51700Y77100D02*
D03*
X52900D02*
D03*
X35009Y8050D02*
D03*
X36209D02*
D03*
X48600Y75700D02*
D03*
X49800D02*
D03*
X22200Y32500D02*
D03*
X23400D02*
D03*
X54350Y4750D02*
D03*
X53150D02*
D03*
X26400Y32500D02*
D03*
X25200D02*
D03*
X39600Y63500D02*
D03*
X38400D02*
D03*
X18000Y60900D02*
D03*
X19200D02*
D03*
X16455Y56905D02*
D03*
X15255D02*
D03*
X48600Y74300D02*
D03*
X49800D02*
D03*
X31800Y36700D02*
D03*
X30600D02*
D03*
X18000Y62100D02*
D03*
X19200D02*
D03*
X48485Y77060D02*
D03*
X49685D02*
D03*
X48900Y1750D02*
D03*
X50100D02*
D03*
D19*
X22400Y69150D02*
D03*
Y67450D02*
D03*
X55500Y3100D02*
D03*
Y1400D02*
D03*
X13474Y67167D02*
D03*
Y68868D02*
D03*
X39900Y1350D02*
D03*
Y3050D02*
D03*
X16808Y67167D02*
D03*
Y68868D02*
D03*
X53250Y1400D02*
D03*
Y3100D02*
D03*
X15220Y67167D02*
D03*
Y68868D02*
D03*
X18395Y67167D02*
D03*
Y68868D02*
D03*
X43175Y3040D02*
D03*
Y1340D02*
D03*
D23*
X26000Y93361D02*
D03*
Y95076D02*
D03*
X37200Y67475D02*
D03*
Y69189D02*
D03*
X35600Y67475D02*
D03*
Y69189D02*
D03*
X34200Y67475D02*
D03*
Y69189D02*
D03*
X29250Y93424D02*
D03*
Y95139D02*
D03*
X27750Y93361D02*
D03*
Y95076D02*
D03*
X26800Y68989D02*
D03*
Y67274D02*
D03*
X25400D02*
D03*
Y68989D02*
D03*
D27*
X39750Y72147D02*
D03*
Y69353D02*
D03*
X47000Y37703D02*
D03*
Y40497D02*
D03*
X42250Y72147D02*
D03*
Y69353D02*
D03*
D35*
X47075Y70475D02*
D03*
X46625D02*
D03*
X46175D02*
D03*
X45725D02*
D03*
X45275D02*
D03*
X44825D02*
D03*
Y73325D02*
D03*
X45275D02*
D03*
X45725D02*
D03*
X46175D02*
D03*
X46625D02*
D03*
X47075D02*
D03*
D36*
X45950Y71900D02*
D03*
D37*
X53004Y78500D02*
D03*
X51604D02*
D03*
D38*
X45300Y6075D02*
D03*
X46250D02*
D03*
X47200D02*
D03*
Y3925D02*
D03*
X45300D02*
D03*
D39*
X33500Y8750D02*
D03*
Y9250D02*
D03*
X33000Y8250D02*
D03*
Y8750D02*
D03*
Y9250D02*
D03*
X32500Y8250D02*
D03*
Y8750D02*
D03*
Y9250D02*
D03*
X32000Y8250D02*
D03*
Y8750D02*
D03*
Y9250D02*
D03*
D40*
X39913Y4984D02*
D03*
D41*
X40853Y7016D02*
D03*
X38947D02*
D03*
D42*
X44239Y100720D02*
D03*
X45954D02*
D03*
X47174Y20500D02*
D03*
X48889D02*
D03*
X11791Y56905D02*
D03*
X13505D02*
D03*
X16744Y48650D02*
D03*
X15030D02*
D03*
X44239Y98180D02*
D03*
X45954D02*
D03*
X11639Y91750D02*
D03*
X9925D02*
D03*
X16639Y42670D02*
D03*
X14925D02*
D03*
X44239Y95640D02*
D03*
X45954D02*
D03*
X16744Y44840D02*
D03*
X15030D02*
D03*
X39604Y98180D02*
D03*
X37889D02*
D03*
X11575Y94000D02*
D03*
X9861D02*
D03*
X37889Y100720D02*
D03*
X39604D02*
D03*
X45954Y93100D02*
D03*
X44239D02*
D03*
X15030Y46745D02*
D03*
X16744D02*
D03*
X37889Y93100D02*
D03*
X39604D02*
D03*
X47111Y22000D02*
D03*
X48826D02*
D03*
X37889Y95640D02*
D03*
X39604D02*
D03*
D43*
X24250Y60670D02*
D03*
X24750D02*
D03*
X25250D02*
D03*
X25750D02*
D03*
X26250D02*
D03*
X26750D02*
D03*
X27250D02*
D03*
X27750D02*
D03*
X28250D02*
D03*
X28750D02*
D03*
X29250D02*
D03*
X29750D02*
D03*
X30250D02*
D03*
X30750D02*
D03*
X31250D02*
D03*
X31750D02*
D03*
X32250D02*
D03*
X32750D02*
D03*
X33250D02*
D03*
X33750D02*
D03*
X34250D02*
D03*
X34750D02*
D03*
X35250D02*
D03*
X35750D02*
D03*
X36250D02*
D03*
X36750D02*
D03*
X37250D02*
D03*
X37750D02*
D03*
X38250D02*
D03*
X38750D02*
D03*
X39250D02*
D03*
X39750D02*
D03*
X40250D02*
D03*
X40750D02*
D03*
X41250D02*
D03*
X41750D02*
D03*
Y39170D02*
D03*
X41250D02*
D03*
X40750D02*
D03*
X40250D02*
D03*
X39750D02*
D03*
X39250D02*
D03*
X38750D02*
D03*
X38250D02*
D03*
X37750D02*
D03*
X37250D02*
D03*
X36750D02*
D03*
X36250D02*
D03*
X35750D02*
D03*
X35250D02*
D03*
X34750D02*
D03*
X34250D02*
D03*
X33750D02*
D03*
X33250D02*
D03*
X32750D02*
D03*
X32250D02*
D03*
X31750D02*
D03*
X31250D02*
D03*
X30750D02*
D03*
X30250D02*
D03*
X29750D02*
D03*
X29250D02*
D03*
X28750D02*
D03*
X28250D02*
D03*
X27750D02*
D03*
X27250D02*
D03*
X26750D02*
D03*
X26250D02*
D03*
X25750D02*
D03*
X25250D02*
D03*
X24750D02*
D03*
X24250D02*
D03*
D44*
X43750Y58670D02*
D03*
Y58170D02*
D03*
Y57670D02*
D03*
Y57170D02*
D03*
Y56670D02*
D03*
Y56170D02*
D03*
Y55670D02*
D03*
Y55170D02*
D03*
Y54670D02*
D03*
Y54170D02*
D03*
Y53670D02*
D03*
Y53170D02*
D03*
Y52670D02*
D03*
Y52170D02*
D03*
Y51670D02*
D03*
Y51170D02*
D03*
Y50670D02*
D03*
Y50170D02*
D03*
Y49670D02*
D03*
Y49170D02*
D03*
Y48670D02*
D03*
Y48170D02*
D03*
Y47670D02*
D03*
Y47170D02*
D03*
Y46670D02*
D03*
Y46170D02*
D03*
Y45670D02*
D03*
Y45170D02*
D03*
Y44670D02*
D03*
Y44170D02*
D03*
Y43670D02*
D03*
Y43170D02*
D03*
Y42670D02*
D03*
Y42170D02*
D03*
Y41670D02*
D03*
Y41170D02*
D03*
X22250D02*
D03*
Y41670D02*
D03*
Y42170D02*
D03*
Y42670D02*
D03*
Y43170D02*
D03*
Y43670D02*
D03*
Y44170D02*
D03*
Y44670D02*
D03*
Y45170D02*
D03*
Y45670D02*
D03*
Y46170D02*
D03*
Y46670D02*
D03*
Y47170D02*
D03*
Y47670D02*
D03*
Y48170D02*
D03*
Y48670D02*
D03*
Y49170D02*
D03*
Y49670D02*
D03*
Y50170D02*
D03*
Y50670D02*
D03*
Y51170D02*
D03*
Y51670D02*
D03*
Y52170D02*
D03*
Y52670D02*
D03*
Y53170D02*
D03*
Y53670D02*
D03*
Y54170D02*
D03*
Y54670D02*
D03*
Y55170D02*
D03*
Y55670D02*
D03*
Y56170D02*
D03*
Y56670D02*
D03*
Y57170D02*
D03*
Y57670D02*
D03*
Y58170D02*
D03*
Y58670D02*
D03*
D45*
X22568Y60352D02*
D03*
D46*
X40738Y66750D02*
D03*
X42262D02*
D03*
D47*
X37647Y12250D02*
D03*
X34853D02*
D03*
X15003Y37700D02*
D03*
X17797D02*
D03*
D48*
X21965Y30170D02*
D03*
X22765D02*
D03*
X23565D02*
D03*
X24365D02*
D03*
X25165D02*
D03*
X25965D02*
D03*
X26765D02*
D03*
X27565D02*
D03*
X28365D02*
D03*
X29165D02*
D03*
X29965D02*
D03*
X30765D02*
D03*
X31565D02*
D03*
X32365D02*
D03*
X33165D02*
D03*
X33965D02*
D03*
X34765D02*
D03*
X35565D02*
D03*
X36365D02*
D03*
X37165D02*
D03*
X37965D02*
D03*
X38765D02*
D03*
X39565D02*
D03*
X40365D02*
D03*
X41165D02*
D03*
X41965D02*
D03*
X42765D02*
D03*
Y18870D02*
D03*
X41965D02*
D03*
X41165D02*
D03*
X40365D02*
D03*
X39565D02*
D03*
X38765D02*
D03*
X37965D02*
D03*
X37165D02*
D03*
X36365D02*
D03*
X35565D02*
D03*
X34765D02*
D03*
X33965D02*
D03*
X33165D02*
D03*
X32365D02*
D03*
X31565D02*
D03*
X30765D02*
D03*
X29965D02*
D03*
X29165D02*
D03*
X28365D02*
D03*
X27565D02*
D03*
X26765D02*
D03*
X25965D02*
D03*
X25165D02*
D03*
X24365D02*
D03*
X23565D02*
D03*
X22765D02*
D03*
X21965D02*
D03*
D49*
X33000Y1550D02*
D03*
D50*
X34300Y4750D02*
D03*
X33650D02*
D03*
X33000D02*
D03*
X32350D02*
D03*
X31700D02*
D03*
M02*
